<?xml version="1.0" standalone="no"?>
<!DOCTYPE svg PUBLIC "-//W3C//DTD SVG 1.1//EN" "http://www.w3.org/Graphics/SVG/1.1/DTD/svg11.dtd" >
<svg xmlns="http://www.w3.org/2000/svg" xmlns:xlink="http://www.w3.org/1999/xlink" version="1.1">
<metadata></metadata>
<defs>
<font id="hermitmedium" horiz-adv-x="1263" >
<font-face units-per-em="2048" ascent="1536" descent="-512" />
<missing-glyph horiz-adv-x="500" />
<glyph horiz-adv-x="0" />
<glyph horiz-adv-x="682" />
<glyph unicode=" " />
<glyph unicode="!" d="M449 0q0 69 56.5 126.5t125.5 57.5t126.5 -57.5t57.5 -126.5t-57.5 -126.5t-126.5 -57.5t-125.5 57.5t-56.5 126.5zM541 512v1024h184v-1024h-184z" />
<glyph unicode="&#x22;" d="M311 1352v24q0 13 2 31.5t9.5 51.5t28 55t50.5 22q41 0 64.5 -40t26.5 -80l4 -40q0 -96 -2.5 -166t-10.5 -166.5t-29 -150t-53 -53.5q-21 0 -37 23.5t-25.5 69t-15.5 91.5t-8.5 113.5t-3 110t-0.5 104.5zM770 1352v24q0 13 2 31.5t9.5 51.5t28 55t50.5 22q26 0 45 -16.5 t28 -40t14 -47t6 -40.5l1 -16q0 -98 -2 -166t-10 -166t-29 -151t-53 -53q-21 0 -37 23.5t-25.5 69t-15.5 91.5t-8.5 113.5t-3 110t-0.5 104.5z" />
<glyph unicode="#" d="M160 328v184h184v512h-184v184h184v328h184v-328h209v328h183v-328h184v-184h-184v-512h184v-184h-184v-328h-183v328h-209v-328h-184v328h-184zM528 512h209v512h-209v-512z" />
<glyph unicode="$" d="M160 526h184q0 -45 8 -74t22 -45.5t37 -24t50 -10t64 -3.5h16v307q-140 4 -191 17q-123 29 -165 142q-25 69 -25 175q0 215 87 286q57 46 189 53q27 2 105 3v184h184v-184q153 -3 207 -16q101 -24 140 -115q32 -75 32 -211h-184q0 72 -50 113t-145 44v-307 q139 -4 190 -16q121 -29 163 -140q26 -70 26 -178q0 -62 -6 -111t-19.5 -84t-30.5 -60t-43 -40.5t-52 -25t-63 -13.5t-71.5 -5.5t-80.5 -2.5h-13v-184h-184v184q-154 3 -208 16q-102 24 -141 116q-32 75 -32 210zM344 1010q0 -53 11 -83.5t37.5 -44t54.5 -17.5t79 -5h15v307 q-100 -3 -128 -13q-55 -18 -66 -90q-3 -24 -3 -54zM725 369q99 3 127 13q54 18 65 90q3 24 3 54q0 53 -10.5 83.5t-37 44t-54 17t-79.5 5.5h-14v-307z" />
<glyph unicode="%" d="M0 0l1067 1536h197l-1067 -1536h-197zM0 1202v17q0 7 0.5 18t6.5 44t16.5 63t34 66.5t54.5 63t81.5 44.5t113.5 18t113.5 -17.5t81.5 -45.5t54.5 -61.5t34 -67.5t16.5 -62t7 -46v-17q0 -8 -0.5 -20.5t-6.5 -45.5t-16.5 -63t-34 -66t-54.5 -62t-81.5 -43.5t-113.5 -17.5 t-113.5 17.5t-81.5 45.5t-54.5 62t-34 68t-16.5 62t-7 46zM164 1212q0 -17 4 -36t16.5 -47.5t44 -47t78.5 -18.5q38 0 66.5 13.5t42.5 31t22.5 41t10.5 37.5t2 26v11q0 12 -2 26.5t-10.5 38t-22.5 41.5t-42.5 31.5t-66.5 13.5t-66.5 -13.5t-42.5 -31.5t-22.5 -41.5t-10 -38 t-1.5 -26.5v-11zM645 317q0 8 1 20.5t7 46t16.5 63.5t33.5 66t54.5 62t82 44t112.5 18q63 0 114.5 -17.5t83 -46t55 -62.5t34.5 -68t17 -62.5t7 -46.5l1 -17q0 -8 -1 -20.5t-7 -45.5t-17 -63t-34.5 -65.5t-55 -61.5t-83 -43.5t-114.5 -17.5q-62 0 -112.5 17.5t-82 43.5 t-54.5 62t-33.5 65.5t-16.5 62.5t-7 45.5t-1 20.5zM809 313q0 -17 4 -36t16.5 -47.5t44 -47t78.5 -18.5q38 0 66.5 13.5t42.5 31t22.5 41t10.5 37.5t2 26v11q0 12 -2 26t-10.5 37.5t-22.5 41t-42.5 31t-66.5 13.5q-47 0 -78.5 -18.5t-44 -47t-16.5 -47.5t-4 -36v-11z" />
<glyph unicode="&#x26;" d="M160 512q0 175 112 279q-112 125 -112 233q0 7 1 20t8.5 50t20.5 70.5t41.5 74.5t67 70.5t101.5 50t141 20.5q75 0 136 -19.5t98.5 -51t65 -69.5t40 -76t19.5 -69.5t8 -50.5l1 -20h-184q0 48 -18 83.5t-40 51.5t-53 25.5t-45 10.5t-28 1t-28.5 -1t-48 -10.5t-57.5 -25.5 t-43.5 -51.5t-19.5 -83.5q0 -41 59.5 -110.5t139 -139t189 -173.5t181.5 -189q7 50 7 125v102h184q0 -232 -74 -393q74 -132 74 -246h-184q0 32 -11 78q-90 -78 -184 -78q-120 0 -204.5 9.5t-149.5 33.5t-104 60t-64 96t-34 133.5t-9 179.5zM344 512q0 -58 2 -97t9.5 -75.5 t18 -58t32 -41t47.5 -29t67.5 -16.5t89 -9t115.5 -2q66 0 115 49q-37 55 -96 118t-107.5 106.5t-127 111.5t-116.5 103q-28 -22 -38.5 -54.5t-10.5 -105.5z" />
<glyph unicode="'" d="M541 1352v24q0 13 2 31.5t9.5 51.5t28 55t50.5 22q26 0 45 -16.5t28 -40t14 -47t6 -40.5l1 -16q0 -98 -2 -166t-10 -166t-29 -151t-53 -53q-21 0 -37 23.5t-25.5 69t-15.5 91.5t-8.5 113.5t-3 110t-0.5 104.5z" />
<glyph unicode="(" d="M240 676q0 18 1.5 49t17 120.5t42.5 170.5t86 180t138.5 170.5t209 120.5t289.5 49v-184q-96 0 -178 -23.5t-139 -60.5t-103.5 -90t-75 -105t-49.5 -112.5t-31 -105t-15.5 -91t-6 -62.5t-0.5 -26t0.5 -26t6 -62.5t15.5 -91t31 -105t49.5 -112.5t75 -105t103.5 -90 t139 -60.5t178 -23.5v-184q-126 0 -233 29.5t-182 79t-136 114t-98.5 136t-65.5 143t-40.5 136t-19.5 114t-8 78.5z" />
<glyph unicode=")" d="M240 0q96 0 178 23.5t139 60.5t103.5 90t75 105t49.5 112.5t31 105t15.5 91t6 62.5t0.5 26t-0.5 26t-6 62.5t-15.5 91t-31 105t-49.5 112.5t-75 105t-103.5 90t-139 60.5t-178 23.5v184q126 0 233 -29.5t182 -79t136 -114t98.5 -136t65.5 -143t40.5 -136t19.5 -114 t8 -78.5l1 -30q0 -18 -1.5 -49t-17 -120.5t-42.5 -170.5t-86 -180t-138.5 -170.5t-209 -120.5t-289.5 -49v184z" />
<glyph unicode="*" d="M160 455l311 221l-311 221l106 147l275 -190v334h184v-334l274 190l105 -147l-313 -221l313 -221l-105 -148l-274 191v-334h-184v334l-275 -191z" />
<glyph unicode="+" d="M160 584v184h381v420h184v-420h379v-184h-379v-420h-184v420h-381z" />
<glyph unicode="," d="M430 -322q0 5 14 19t36.5 38.5t47 58.5t48.5 89t38 119q-65 9 -115 63.5t-50 118.5q0 69 56.5 127t125.5 58t126.5 -58t57.5 -127q0 -67 -11 -134t-38.5 -136t-68 -122t-105 -86.5t-143.5 -33.5q-19 0 -19 6z" />
<glyph unicode="-" d="M160 584v184h944v-184h-944z" />
<glyph unicode="." d="M449 184q0 69 56.5 127t125.5 58t126.5 -58t57.5 -127t-57.5 -126.5t-126.5 -57.5t-125.5 57.5t-56.5 126.5z" />
<glyph unicode="/" d="M240 -184l587 1720h197l-588 -1720h-196z" />
<glyph unicode="0" d="M160 768q0 162 12.5 284t29 204t55 136.5t67 83t90 42.5t99.5 16t118 2q70 0 104 -1.5t90 -10t83 -29t66 -55.5t57 -91.5t38 -136t27.5 -191t7.5 -253.5t-7.5 -253.5t-27.5 -191t-38 -136t-57 -91.5t-66 -55.5t-83 -29t-90 -10t-104 -1.5q-80 0 -118 2t-99.5 16t-90 42.5 t-67 83t-55 136.5t-29 204t-12.5 284zM344 768q0 -141 10 -258l496 760q-32 52 -77 67t-142 15q-51 0 -75 -1.5t-61.5 -12t-54.5 -32.5t-40 -63t-32.5 -103.5t-16.5 -155t-7 -216.5zM414 266q32 -52 77.5 -67t139.5 -15q51 0 75 1.5t62 12t55 32.5t40 63t32.5 103.5t17 155 t7.5 216.5q0 128 -11 256z" />
<glyph unicode="1" d="M160 811l520 725h229v-1536h-184v1280l-340 -469h-225z" />
<glyph unicode="2" d="M160 0v184q16 12 43.5 33.5t106 87.5t150.5 130t159.5 150.5t151 161t106.5 150t43 127.5q0 32 -0.5 50.5t-3 50t-7.5 50.5t-15 46t-24.5 43.5t-36.5 35t-50 28.5t-66.5 17t-85.5 7t-85.5 -7t-66.5 -17.5t-50 -29.5t-36 -35t-24 -43.5t-14.5 -46t-7 -50.5t-3 -49.5 t-0.5 -49.5h-184q0 71 1 107.5t10 100t26 98.5t51 80.5t83.5 68.5t125.5 40t174 17t174.5 -18t125.5 -43t83.5 -71t51.5 -82.5t26 -99t10.5 -98t1.5 -100.5q0 -64 -36 -145t-93.5 -159.5t-127 -158t-139.5 -146.5t-127.5 -119.5t-93.5 -81.5l-36 -30h653v-184h-944z" />
<glyph unicode="3" d="M160 455h184q0 -136 73.5 -203.5t213.5 -67.5t214.5 67.5t74.5 203.5t-74.5 203t-214.5 67v184q110 0 176.5 58t66.5 163t-66.5 163.5t-176.5 58.5t-176 -58.5t-66 -163.5h-184q0 190 108 298t318 108t318 -108t108 -298q0 -25 -3 -49t-6 -43.5t-11 -40.5t-12.5 -34.5 t-16 -32t-17 -27.5t-19 -26t-17.5 -22t-18.5 -21.5t-16.5 -18.5q10 -12 38.5 -36.5t50 -48t45.5 -60.5t37 -91.5t13 -123.5q0 -123 -57.5 -226.5t-166.5 -166t-249 -62.5q-139 0 -248 62.5t-166 165.5t-57 227z" />
<glyph unicode="4" d="M160 584v184l717 768h227v-1536h-184v584h-760zM410 768h510v543z" />
<glyph unicode="5" d="M160 0v184h471q136 0 212.5 79t76.5 212q0 137 -70.5 215t-218.5 78h-471v768h811v-184h-627v-400h287q217 0 345 -127t128 -350q0 -124 -57.5 -231.5t-167 -175.5t-248.5 -68h-471z" />
<glyph unicode="6" d="M160 475v293q0 214 32.5 365.5t96 238.5t147 125.5t195.5 38.5q103 0 184 -27.5t128 -72.5t71 -97t24 -106h-184q0 15 -9.5 33t-32 38.5t-70 34t-111.5 13.5q-88 0 -147.5 -46t-95.5 -159t-42 -297q39 39 122.5 70.5t162.5 31.5q216 0 344.5 -129.5t128.5 -347.5 t-128.5 -346.5t-344.5 -128.5t-343.5 128.5t-127.5 346.5zM344 475q0 -138 74.5 -214.5t212.5 -76.5t213.5 76.5t75.5 214.5t-75.5 215.5t-213.5 77.5q-137 0 -212 -77t-75 -216z" />
<glyph unicode="7" d="M160 0l651 1352h-651v184h944q-123 -256 -369.5 -768t-369.5 -768h-205z" />
<glyph unicode="8" d="M160 455q0 69 13.5 124t37 91.5t45 60.5t50 48t38.5 36q-2 2 -18 20.5t-21 24.5t-20 25t-21 30.5t-18 32t-17 38.5t-12 41.5t-9.5 49t-2.5 53.5q0 190 108 298t318 108t318 -108t108 -298q0 -25 -3 -49t-6 -43.5t-11 -40.5t-12.5 -34.5t-16 -32t-17 -27.5t-19 -26 t-17.5 -22t-18.5 -21.5t-16.5 -18.5q10 -12 38.5 -36.5t50 -48t45.5 -60.5t37 -91.5t13 -123.5q0 -123 -57.5 -226.5t-166.5 -166t-249 -62.5q-139 0 -248 62.5t-166 165.5t-57 227zM344 455q0 -136 73.5 -203.5t213.5 -67.5t214.5 67.5t74.5 203.5t-74.5 203t-214.5 67 q-287 0 -287 -270zM389 1130q0 -105 66 -163t176 -58t176.5 58t66.5 163t-66.5 163.5t-176.5 58.5t-176 -58.5t-66 -163.5z" />
<glyph unicode="9" d="M160 1061q0 218 127.5 346.5t343.5 128.5t344.5 -128.5t128.5 -346.5v-1061h-184v688q-40 -40 -123.5 -72t-165.5 -32q-215 0 -343 129.5t-128 347.5zM344 1061q0 -139 75 -216t212 -77q138 0 213.5 77.5t75.5 215.5t-75.5 214.5t-213.5 76.5t-212.5 -76.5t-74.5 -214.5z " />
<glyph unicode=":" d="M449 184q0 69 56.5 127t125.5 58t126.5 -58t57.5 -127t-57.5 -126.5t-126.5 -57.5t-125.5 57.5t-56.5 126.5zM449 877q0 69 56.5 126.5t125.5 57.5t126.5 -57.5t57.5 -126.5t-57.5 -127t-126.5 -58t-125.5 58t-56.5 127z" />
<glyph unicode=";" d="M430 -322q0 5 14 19t36.5 38.5t47 58.5t48.5 89t38 119q-65 9 -115 63.5t-50 118.5q0 69 56.5 127t125.5 58t126.5 -58t57.5 -127q0 -67 -11 -134t-38.5 -136t-68 -122t-105 -86.5t-143.5 -33.5q-19 0 -19 6zM449 877q0 69 56.5 126.5t125.5 57.5t126.5 -57.5 t57.5 -126.5t-57.5 -127t-126.5 -58t-125.5 58t-56.5 127z" />
<glyph unicode="&#x3c;" d="M240 584v184l784 420v-209l-565 -303l565 -303v-209z" />
<glyph unicode="=" d="M160 328v184h944v-184h-944zM160 840v184h944v-184h-944z" />
<glyph unicode="&#x3e;" d="M240 164v209l563 303l-563 303v209l784 -420v-184z" />
<glyph unicode="?" d="M160 1151q0 63 7.5 114.5t18 89.5t34 67t41.5 48t56.5 32t63 20t76 10t81.5 3.5t93 0.5t93 -0.5t81.5 -4t76.5 -10t63.5 -19.5t57 -32t42 -48t34 -67t18 -89.5t7.5 -114.5q0 -72 -9 -128.5t-24.5 -96.5t-42.5 -68t-55.5 -45t-71 -27t-82 -13.5t-94.5 -4.5v-256h-184v440 h90h10q37 0 57 0.5t49.5 2t45 5t37.5 10.5t33 17t24 25t19 34.5t10 45.5t4 59q0 59 -14.5 98t-32.5 59.5t-62.5 30.5t-77 11.5t-102.5 1.5t-102 -1.5t-76.5 -11.5t-62.5 -30.5t-32 -59.5t-14 -98h-184zM449 0q0 69 56.5 126.5t125.5 57.5t126.5 -57.5t57.5 -126.5 t-57.5 -126.5t-126.5 -57.5t-125.5 57.5t-56.5 126.5z" />
<glyph unicode="@" d="M160 768q0 214 32.5 365.5t96 238.5t147 125.5t195.5 38.5q42 0 65.5 -0.5t68 -3.5t71.5 -8.5t67 -16.5t65 -27t53.5 -41t44.5 -57t27 -76.5t11 -97.5v-741h-227q-223 0 -325.5 67t-102.5 234q0 77 18 130.5t49.5 87t87 52t118 25t155.5 6.5h43v139q0 34 -13.5 60 t-40.5 41t-52.5 24.5t-64 13t-60 4.5t-54.5 1h-4q-71 0 -122.5 -29.5t-89.5 -97t-56.5 -181t-18.5 -276.5t18.5 -276.5t56.5 -181t89.5 -97t122.5 -29.5h4q33 0 54.5 1t60 4.5t64 13t52.5 24.5t40.5 41t13.5 60h184q0 -53 -11 -97.5t-27 -76.5t-44.5 -57t-53.5 -41t-65 -27 t-67 -16.5t-71.5 -8.5t-68 -3.5t-65.5 -0.5q-112 0 -195.5 38.5t-147 125.5t-96 238.5t-32.5 365.5zM631 768q0 -34 12 -56.5t28.5 -34.5t52 -18t63.5 -7t83 -1h50v234h-43h-13q-37 0 -58 -1t-52.5 -4t-50 -10.5t-37 -20t-27 -33t-8.5 -48.5z" />
<glyph unicode="A" d="M160 0l372 1536h197l375 -1536h-191l-102 420h-360l-101 -420h-190zM498 604h268l-135 551z" />
<glyph unicode="B" d="M160 0v791v137v608h471q78 0 141 -22t101.5 -57t67 -77t41.5 -84.5t20.5 -77.5t8.5 -57l1 -22q0 -8 -1 -22t-8 -52t-18.5 -71t-37.5 -68.5t-62 -55.5q61 -33 106 -85t65.5 -102t32.5 -95t13 -73l2 -28q0 -10 -1 -27.5t-10.5 -68t-26 -96.5t-52 -102.5t-83.5 -97t-126 -68 t-174 -27.5h-471zM344 184h287q59 0 106.5 16.5t76.5 43.5t51 59t32 64.5t16 59.5t7 43v17q0 6 -0.5 17t-6.5 42.5t-16 60.5t-32 64t-51 60t-76.5 42.5t-106.5 17.5h-287v-607zM344 928h287q40 0 72.5 11.5t52.5 30t34.5 41t21.5 45.5t10.5 41.5t3.5 30.5l1 11q0 4 -0.5 12 t-4 30t-10.5 42t-21.5 44.5t-34.5 42.5t-52.5 30t-72.5 12h-287v-424z" />
<glyph unicode="C" d="M160 768q0 214 32.5 365.5t96 238.5t147 125.5t195.5 38.5q42 0 65.5 -0.5t68 -3.5t71.5 -8.5t67 -16.5t65 -27t53.5 -41t44.5 -57t27 -76.5t11 -97.5h-184q0 34 -13.5 60t-40.5 41t-52.5 24.5t-64 13t-60 4.5t-54.5 1h-4q-71 0 -122.5 -29.5t-89.5 -97t-56.5 -181 t-18.5 -276.5t18.5 -276.5t56.5 -181t89.5 -97t122.5 -29.5h4q33 0 54.5 1t60 4.5t64 13t52.5 24.5t40.5 41t13.5 60h184q0 -53 -11 -97.5t-27 -76.5t-44.5 -57t-53.5 -41t-65 -27t-67 -16.5t-71.5 -8.5t-68 -3.5t-65.5 -0.5q-112 0 -195.5 38.5t-147 125.5t-96 238.5 t-32.5 365.5z" />
<glyph unicode="D" d="M160 0v1253v283h184h37h250q96 0 174 -42.5t126 -110t83.5 -149.5t52 -164t26 -149.5t10.5 -110.5l1 -42q0 -10 -0.5 -27t-5 -69.5t-12.5 -103.5t-24.5 -120t-39 -128.5t-59.5 -120t-82 -103t-109.5 -69.5t-140.5 -27h-242h-229zM344 184h45h242q59 0 106.5 32t76.5 83.5 t51 114t32 125t16 114t7 83.5v32q0 12 -0.5 33t-6.5 82t-16 116t-32 122.5t-51 116t-76.5 81.5t-106.5 33h-254h-33v-1168z" />
<glyph unicode="E" d="M160 0v1536h944v-184h-760v-492h381v-184h-381v-492h760v-184h-944z" />
<glyph unicode="F" d="M160 0v1536h944v-184h-760v-492h381v-184h-381v-676h-184z" />
<glyph unicode="G" d="M160 768q0 214 32.5 365.5t96 238.5t147 125.5t195.5 38.5q42 0 65.5 -0.5t68 -3.5t71.5 -8.5t67 -16.5t65 -27t53.5 -41t44.5 -57t27 -76.5t11 -97.5h-184q0 34 -13.5 60t-40.5 41t-52.5 24.5t-64 13t-60 4.5t-54.5 1h-4q-71 0 -122.5 -29.5t-89.5 -97t-56.5 -181 t-18.5 -276.5t18.5 -276.5t56.5 -181t89.5 -97t122.5 -29.5h4q33 0 54.5 1t60 4.5t64 13t52.5 24.5t40.5 41t13.5 60v256h-289v184h289q7 0 19.5 -1t44.5 -11t56 -27.5t44 -55t20 -89.5v-256q0 -53 -11 -97.5t-27 -76.5t-44.5 -57t-53.5 -41t-65 -27t-67 -16.5t-71.5 -8.5 t-68 -3.5t-65.5 -0.5q-112 0 -195.5 38.5t-147 125.5t-96 238.5t-32.5 365.5z" />
<glyph unicode="H" d="M160 0v1536h184v-676h576v676h184v-1536h-184v676h-576v-676h-184z" />
<glyph unicode="I" d="M201 0v184h340v1168h-340v184h864v-184h-340v-1168h340v-184h-864z" />
<glyph unicode="J" d="M160 512h184q0 -81 7 -138t27.5 -93t38.5 -56t59 -29t68.5 -10.5t86.5 -1.5t86.5 1.5t69 10.5t59.5 29t38.5 56t28 93t7.5 138v840h-289v184h473v-1024q0 -76 -5 -138.5t-17.5 -111t-24.5 -86.5t-37.5 -65.5t-43.5 -46.5t-55 -31t-60.5 -19t-71 -10t-75 -3.5t-83.5 -0.5 t-83.5 0.5t-75 3.5t-70.5 10t-60 19t-55 31t-43 46.5t-37 65.5t-25 86.5t-17.5 111t-4.5 138.5z" />
<glyph unicode="K" d="M160 0v1536h184v-1155q93 193 278.5 578t278.5 577h203l-371 -768l371 -768h-203l-270 557l-266 -557h-205z" />
<glyph unicode="L" d="M160 0v1536h184v-1352l760 -6v-178h-944z" />
<glyph unicode="M" d="M160 0v1536h205l266 -561l270 561h203v-1536h-184v1163l-183 -395h-207l-186 395v-1163h-184z" />
<glyph unicode="N" d="M160 0v1536h205q276 -578 555 -1155v1155h184v-1536h-203q-465 962 -557 1155v-1155h-184z" />
<glyph unicode="O" d="M160 768q0 162 12.5 284t29 204t55 136.5t67 83t90 42.5t99.5 16t118 2q70 0 104 -1.5t90 -10t83 -29t66 -55.5t57 -91.5t38 -136t27.5 -191t7.5 -253.5t-8 -253.5t-27.5 -191t-37.5 -136t-57 -91.5t-66 -55.5t-83 -29t-90 -10t-104 -1.5q-80 0 -118 2t-99.5 16t-90 42.5 t-67 83t-55 136.5t-29 204t-12.5 284zM344 768q0 -124 7 -216.5t16.5 -155t32.5 -103.5t40 -63t54.5 -32.5t61.5 -12t75 -1.5t75 1.5t62 12t55 32.5t40 63t32.5 103.5t17 155t7.5 216.5t-7.5 216.5t-17 155t-32.5 103.5t-40 63t-55 32.5t-62 12t-75 1.5t-75 -1.5t-61.5 -12 t-54.5 -32.5t-40 -63t-32.5 -103.5t-16.5 -155t-7 -216.5z" />
<glyph unicode="P" d="M160 0v1536h471q96 0 174 -23.5t126 -61.5t83.5 -84t52 -92t26 -84t10.5 -61l1 -24q0 -9 -1 -24.5t-10 -60t-26 -85.5t-52.5 -90.5t-83.5 -85t-126 -60t-174 -24.5h-287v-676h-184zM344 860h287q59 0 106.5 13.5t76.5 35.5t51 48t32 52t16 48t7 35v14q0 5 -0.5 14 t-6.5 34.5t-16 48.5t-32 51.5t-51 49t-76.5 34.5t-106.5 14h-287v-492z" />
<glyph unicode="Q" d="M160 768q0 162 12.5 284t29 204t55 136.5t67 83t90 42.5t99.5 16t118 2q70 0 104 -1.5t90 -10t83 -29t66 -55.5t57 -91.5t38 -136t27.5 -191t7.5 -253.5q0 -280 -129 -502l129 -266h-203l-51 104q-110 -104 -219 -104q-80 0 -118 2t-99.5 16t-90 42.5t-67 83t-55 136.5 t-29 204t-12.5 284zM344 768q0 -124 7 -216.5t16.5 -155t32.5 -103.5t40 -63t54.5 -32.5t61.5 -12t75 -1.5q95 0 153 58q-42 88 -83 171t-83 171h205l66 -135q31 133 31 319q0 124 -7.5 216.5t-17 155t-32.5 103.5t-40 63t-55 32.5t-62 12t-75 1.5t-75 -1.5t-61.5 -12 t-54.5 -32.5t-40 -63t-32.5 -103.5t-16.5 -155t-7 -216.5z" />
<glyph unicode="R" d="M160 0v1536h471q96 0 174 -23.5t126 -61.5t83.5 -84t52 -92t26 -84t10.5 -61l1 -24q0 -69 -20 -131.5t-52.5 -106t-70.5 -79t-76 -56.5t-67 -32t-46 -11l332 -690h-203l-328 676h-229v-676h-184zM344 860h287q59 0 106.5 13.5t76.5 35.5t51 48t32 52t16 48t7 35v14 q0 5 -0.5 14t-6.5 34.5t-16 48.5t-32 51.5t-51 49t-76.5 34.5t-106.5 14h-287v-492z" />
<glyph unicode="S" d="M160 369h184q0 -39 7 -68t17 -48.5t31.5 -32.5t39.5 -20.5t53.5 -11t61 -4t73.5 -0.5h4q51 0 75 1t62 6t55 16t40 31.5t32.5 51.5t17 77t7.5 108q0 38 -1 66t-5.5 53t-8 42t-15 31t-19 22.5t-28.5 15t-34.5 9.5t-45.5 5t-54 2h-66h-12q-63 0 -93 0.5t-81.5 4t-76 11 t-63 22t-56.5 36t-41.5 54t-34 75t-18 99.5t-7.5 128q0 63 7.5 114.5t18 89.5t34 67t41.5 48t56.5 32t63 20t76 10t81.5 3.5t93 0.5q115 0 196.5 -16t146.5 -56t97.5 -114t32.5 -183h-184q0 51 -10 85.5t-25 54t-45 30t-58.5 13t-76.5 2.5h-74q-70 0 -102 -1.5t-76.5 -11.5 t-62.5 -30.5t-32 -59.5t-14 -98q0 -65 2.5 -104t18 -68.5t28.5 -43t55 -21t74 -8.5t109 -1h8q61 0 91.5 -0.5t80.5 -4.5t75 -11.5t62.5 -22t56 -36t41 -54t33 -75t18 -99t7.5 -127.5q0 -78 -7.5 -141t-18 -110.5t-34 -83t-42 -59t-57 -39.5t-63.5 -24.5t-76.5 -12.5 t-81.5 -4.5t-93 -0.5q-56 0 -83.5 0.5t-75 2.5t-70.5 7t-60 13.5t-55 22.5t-43 33.5t-37 47t-25 62.5t-17.5 80t-4.5 100z" />
<glyph unicode="T" d="M160 1372v164h944v-164h-379v-1372h-184v1372h-381z" />
<glyph unicode="U" d="M160 455v16v1065h184v-1065q0 -6 0.5 -16.5t6.5 -40t15.5 -57t31 -60.5t50.5 -56.5t76.5 -40t106.5 -16.5q216 0 252.5 36t36.5 251v1065h184v-1065q0 -237 -13 -307q-16 -93 -75 -126q-57 -33 -221 -37q-47 -1 -164 -1q-76 0 -140 16t-109.5 43.5t-82 62.5t-59 74.5 t-39 78.5t-24 74t-12 62.5t-5.5 43.5z" />
<glyph unicode="V" d="M160 1536h190l281 -1155l282 1155h191l-375 -1536h-197z" />
<glyph unicode="W" d="M160 1536h186l74 -975l117 463h188l119 -467l74 979h186l-117 -1536h-184l-172 662l-168 -662h-187z" />
<glyph unicode="X" d="M160 0l370 768l-370 768h205l266 -557l270 557h203l-371 -768l371 -768h-203l-270 557l-266 -557h-205z" />
<glyph unicode="Y" d="M160 1536h205l266 -541l266 541h207l-379 -768v-768h-184v768z" />
<glyph unicode="Z" d="M160 0l651 1352h-651v184h944q-109 -225 -326.5 -675.5t-326.5 -676.5h653v-184h-944z" />
<glyph unicode="[" d="M240 -184v1720h784v-184h-600v-1352h600v-184h-784z" />
<glyph unicode="\" d="M240 1536h196l588 -1536h-197z" />
<glyph unicode="]" d="M240 0h600v1352h-600v184h784v-1720h-784v184z" />
<glyph unicode="^" d="M240 768l301 768h184l299 -768h-197l-196 496l-193 -496h-198z" />
<glyph unicode="_" d="M160 0h944v-184h-944v184z" />
<glyph unicode="`" d="M276 1464q0 28 20.5 50t47.5 22h2q27 0 59 -16t50 -32l18 -15q131 -122 168 -164q79 -89 82 -150q0 -43 -37 -43h-4q-61 0 -142 58.5t-194 164.5q-8 7 -19 19.5t-30.5 45.5t-20.5 60z" />
<glyph unicode="a" d="M160 303q0 76 22.5 130.5t60 87t99.5 51.5t129 25.5t160 6.5h254h35q0 57 -15.5 100t-41.5 68.5t-64.5 41t-78 21t-89.5 5.5q-72 0 -135 -13.5t-97.5 -28t-89.5 -41.5l-18 -9l-82 153q116 58 216.5 90.5t205.5 32.5q91 0 165 -19t122 -48.5t84.5 -70.5t55 -79.5t30 -81.5 t14 -69.5t2.5 -51.5v-604h-227h-246q-112 0 -195.5 15.5t-147 50t-96 94t-32.5 143.5zM344 303q0 -25 9 -44t21.5 -31.5t37 -21t44 -13t55.5 -6.5t57 -2.5t63 -0.5h239h50v236h-43h-246h-13q-38 0 -61.5 -1t-60.5 -4t-60 -10.5t-46 -20t-34.5 -33t-11.5 -48.5z" />
<glyph unicode="b" d="M160 0v741v795h184v-256v-215v-41h37h250q76 0 140.5 -17.5t109.5 -47t82 -68t59.5 -81t39 -85t24.5 -81t12.5 -68t5.5 -46.5v-18q0 -11 -1 -29.5t-10.5 -71.5t-26 -101.5t-52 -107.5t-83.5 -101.5t-126 -71.5t-174 -29h-242h-229zM344 184h45h242q59 0 106.5 18t76.5 47 t51 64t32 70t16 64t7 47v18q0 7 -0.5 18.5t-6.5 46t-16 65.5t-32 68.5t-51 65t-76.5 46t-106.5 18.5h-254h-33v-656z" />
<glyph unicode="c" d="M160 512q0 243 126.5 377.5t344.5 134.5q42 0 65.5 -0.5t68 -3.5t71.5 -8.5t67 -16.5t65 -27t53.5 -41t44.5 -57t27 -76.5t11 -97.5h-184q0 34 -13.5 60t-40.5 41t-52.5 24.5t-64 13t-60 4.5t-54.5 1h-4q-134 0 -210.5 -92.5t-76.5 -235.5t76.5 -235.5t210.5 -92.5h4 q33 0 54.5 1t60 4.5t64 13t52.5 24.5t40.5 41t13.5 60h184q0 -53 -11 -97.5t-27 -76.5t-44.5 -57t-53.5 -41t-65 -27t-67 -16.5t-71.5 -8.5t-68 -3.5t-65.5 -0.5q-218 0 -344.5 134.5t-126.5 377.5z" />
<glyph unicode="d" d="M160 494v18q0 11 1 29.5t10.5 71.5t25.5 101.5t51.5 107.5t83 101.5t125.5 71.5t174 29h254h35v41v215v256h184v-795v-741h-230h-243q-76 0 -140 17.5t-109.5 47t-82 68t-59 81t-39 85t-24 81t-12 68t-5.5 46.5zM344 512v-18.5t6.5 -46t16 -65.5t31 -68.5t50.5 -65 t76.5 -46t106.5 -18.5h246h43v656h-35h-254q-59 0 -106.5 -18t-76.5 -47t-50.5 -64t-31 -70t-15.5 -64t-7 -47v-18z" />
<glyph unicode="e" d="M160 512q0 76 4.5 138.5t17.5 111t25 86.5t37 65.5t43 46.5t55 31t60 19t70.5 10t75 3.5t83.5 0.5t83.5 -0.5t75 -3.5t71 -10t60.5 -19t55 -31t43.5 -46.5t37.5 -65.5t24.5 -86.5t17.5 -111t5 -138.5v-92h-760q0 -70 14 -115.5t32 -69.5t62.5 -35.5t76.5 -13.5t102 -2 h381v-184h-381q-56 0 -83.5 0.5t-75 3.5t-70.5 10t-60 19t-55 31t-43 46.5t-37 65.5t-25 86.5t-17.5 111t-4.5 138.5zM344 604h576q0 35 -2.5 64t-10 51.5t-14.5 39.5t-22 30t-26 21.5t-33.5 14t-36.5 9t-43.5 5t-47 1.5h-53.5q-70 0 -102 -2t-76.5 -13.5t-62.5 -35.5 t-32 -69.5t-14 -115.5z" />
<glyph unicode="f" d="M303 0v1116v2q0 30 1 53t8.5 69.5t21 81.5t41.5 77.5t67 70.5t101 47t139 19q105 0 205.5 -32.5t216.5 -90.5l-82 -153q-108 53 -159 68q-82 24 -181 24q-110 0 -152.5 -59t-42.5 -177v-420h287v-184h-287v-512h-184z" />
<glyph unicode="g" d="M160 512q0 76 4.5 138.5t17.5 111t25 86.5t37 65.5t43 46.5t55 31t60 19t70.5 10t75 3.5t83.5 0.5t83.5 -0.5t75 -3.5t71 -10t60.5 -19t55 -31t43.5 -46.5t37.5 -65.5t24.5 -86.5t17.5 -111t5 -138.5v-512v-92q0 -25 -2.5 -51.5t-14 -69.5t-30 -81.5t-55 -79.5 t-84.5 -70.5t-122 -48.5t-165 -19q-105 0 -205.5 32.5t-216.5 90.5l82 153q108 -53 159 -68q82 -24 181 -24q50 0 89.5 5.5t78 21t64.5 41t41.5 68.5t15.5 100v92v33q-3 -33 -289 -33q-56 0 -83.5 0.5t-75 3.5t-70.5 10t-60 19t-55 31t-43 46.5t-37 65.5t-25 86.5t-17.5 111 t-4.5 138.5zM344 512q0 -81 7 -138t27.5 -93t38.5 -56t59 -29t68.5 -10.5t86.5 -1.5t86.5 1.5t69 10.5t59.5 29t38.5 56t28 93t7.5 138t-7.5 138t-28 93t-38.5 56t-59.5 29t-69 10.5t-86.5 1.5t-86.5 -1.5t-68.5 -10.5t-59 -29t-38.5 -56t-27.5 -93t-7 -138z" />
<glyph unicode="h" d="M160 0v741v795h184v-256v-215v-41h37h250q76 0 140.5 -17.5t109.5 -47t82 -68t59.5 -81t39 -85t24.5 -81t12.5 -68t5.5 -46.5v-18v-512h-184v512q0 7 -0.5 18.5t-6.5 46t-16 65.5t-32 68.5t-51 65t-76.5 46t-106.5 18.5h-254h-33v-840h-184z" />
<glyph unicode="i" d="M160 0v184h381v656h-289v184h473v-840h379v-184h-944zM356 1352q0 69 58 126.5t127 57.5t126.5 -57.5t57.5 -126.5t-57.5 -127t-126.5 -58t-127 58t-58 127z" />
<glyph unicode="j" d="M190 -389l82 153q108 -53 159 -68q82 -24 181 -24q50 0 89.5 5.5t78 21t64.5 41t41.5 68.5t15.5 100v92v840h-577v184h761v-1024v-92q0 -25 -2.5 -51.5t-14 -69.5t-30 -81.5t-55 -79.5t-84.5 -70.5t-122 -48.5t-165 -19q-105 0 -205.5 32.5t-216.5 90.5zM612 1352 q0 69 57 126.5t126 57.5t126.5 -57.5t57.5 -126.5t-57.5 -127t-126.5 -58t-126 58t-57 127z" />
<glyph unicode="k" d="M160 0v1536h184v-1274q89 127 268.5 381t268.5 381h223q-60 -85 -180 -256t-179 -256l359 -512h-223l-250 352q-41 -59 -123 -175.5t-123 -176.5h-225z" />
<glyph unicode="l" d="M160 0v184h381v1168h-185v184h369v-1352h379v-184h-944z" />
<glyph unicode="m" d="M160 0v553q0 237 12 306q17 94 74 127t219 37l166 1q238 0 307 -12q94 -17 127 -75q34 -57 38 -219q1 -49 1 -165v-553h-184v553v16v115.5t-8.5 73.5t-15.5 49t-36 21.5t-52.5 11.5h-82.5v-840h-184v840q-111 -2 -139 -13q-39 -14 -50 -67q-8 -42 -8 -207v-553h-184z" />
<glyph unicode="n" d="M160 0v553q0 237 12 306q17 94 74 127t219 37l166 1q76 0 140.5 -16t109.5 -43.5t82 -62.5t59.5 -74.5t39 -78.5t24.5 -74t12.5 -62.5t5.5 -43.5v-16v-553h-184v553q0 6 -0.5 16.5t-6.5 40t-16 57t-32 60.5t-51 56.5t-76.5 40t-106.5 16.5q-215 0 -251 -36t-36 -251v-553 h-184z" />
<glyph unicode="o" d="M160 512q0 76 4.5 138.5t17.5 111t25 86.5t37 65.5t43 46.5t55 31t60 19t70.5 10t75 3.5t83.5 0.5t83.5 -0.5t75 -3.5t71 -10t60.5 -19t55 -31t43.5 -46.5t37.5 -65.5t24.5 -86.5t17.5 -111t5 -138.5t-5 -138.5t-17.5 -111t-24.5 -86.5t-37.5 -65.5t-43.5 -46.5t-55 -31 t-60.5 -19t-71 -10t-75 -3.5t-83.5 -0.5t-83.5 0.5t-75 3.5t-70.5 10t-60 19t-55 31t-43 46.5t-37 65.5t-25 86.5t-17.5 111t-4.5 138.5zM344 512q0 -81 7 -138t27.5 -93t38.5 -56t59 -29t68.5 -10.5t86.5 -1.5t86.5 1.5t69 10.5t59.5 29t38.5 56t28 93t7.5 138t-7.5 138 t-28 93t-38.5 56t-59.5 29t-69 10.5t-86.5 1.5t-86.5 -1.5t-68.5 -10.5t-59 -29t-38.5 -56t-27.5 -93t-7 -138z" />
<glyph unicode="p" d="M160 283v741h229h242q76 0 140.5 -17.5t109.5 -47t82 -68t59.5 -81t39 -85t24.5 -81t12.5 -68t5.5 -46.5v-18q0 -11 -1 -29.5t-10.5 -71.5t-26 -101.5t-52 -107.5t-83.5 -101.5t-126 -71.5t-174 -29h-250h-37v-41v-215v-256h-184v795zM344 184h33h254q59 0 106.5 18 t76.5 47t51 64t32 70t16 64t7 47v18q0 7 -0.5 18.5t-6.5 46t-16 65.5t-32 68.5t-51 65t-76.5 46t-106.5 18.5h-242h-45v-656z" />
<glyph unicode="q" d="M160 494v18q0 11 1 29.5t10.5 71.5t25.5 101.5t51.5 107.5t83 101.5t125.5 71.5t174 29h243h230v-741v-795h-184v256v215v41h-35h-254q-76 0 -140 17.5t-109.5 47t-82 68t-59 81t-39 85t-24 81t-12 68t-5.5 46.5zM344 512q0 -7 0.5 -18.5t6.5 -46t15.5 -65.5t31 -68.5 t50.5 -65t76.5 -46t106.5 -18.5h254h35v656h-43h-246q-59 0 -106.5 -18t-76.5 -47t-50.5 -64t-31 -70t-15.5 -64t-7 -47v-18z" />
<glyph unicode="r" d="M160 0v512q0 257 12 333q16 101 74 138q56 35 212 40q49 1 173 1q42 0 65.5 -0.5t68 -3.5t71.5 -8.5t67 -16.5t65 -27t53.5 -41t44.5 -57t27 -76.5t11 -97.5h-184q0 34 -13.5 60t-40.5 41t-52.5 24.5t-64 13t-60 4.5t-54.5 1h-4q-157 0 -199 -11q-54 -15 -72 -65 q-16 -47 -16 -212v-40v-512h-184z" />
<glyph unicode="s" d="M160 303h184q0 -18 2.5 -32.5t10 -25.5t14 -20t22 -15.5t25.5 -11t32.5 -7t36.5 -4t44 -2.5t47 -1h53q59 0 86.5 0.5t69 4t59.5 10.5t38.5 20t28 34t7.5 50q0 28 -7 48.5t-26 33t-37 20t-55.5 11t-65 4t-80.5 0.5h-26q-47 0 -73 0.5t-71 3t-72 8t-65 16t-60.5 25 t-48.5 37.5t-40 52.5t-23.5 69.5t-9.5 89q0 56 7.5 100t27 75.5t37.5 53.5t57 36t65.5 22t83 11.5t90 4t103.5 0.5q80 0 118 -1t99.5 -6.5t90.5 -16.5t67.5 -32.5t55.5 -54t29.5 -80.5t12.5 -112h-184q0 29 -7.5 50t-28 34t-38.5 20t-59.5 10.5t-69 4t-86.5 0.5h-53t-47 -1 t-44 -2.5t-36.5 -4t-32.5 -7t-25.5 -11t-22 -15.5t-14 -20t-10 -25.5t-2.5 -32.5q0 -24 6.5 -42.5t16 -31t29.5 -21t37.5 -13t51 -6.5t58 -2.5t69.5 -0.5h27q47 0 73.5 -0.5t71.5 -3t72 -8t65 -16t60.5 -25t49 -37.5t40.5 -52.5t23.5 -69.5t9.5 -89q0 -64 -12.5 -112 t-29.5 -80.5t-55.5 -54t-67.5 -32.5t-90.5 -16.5t-99.5 -6.5t-118 -1q-70 0 -103.5 0.5t-90 4t-83 11.5t-65.5 22t-57 36t-37.5 53.5t-27 75.5t-7.5 100z" />
<glyph unicode="t" d="M209 420v92v1024h184v-512h578v-184h-578v-328v-92q0 -57 15.5 -100t41.5 -68.5t64.5 -41t78 -21t89.5 -5.5q72 0 135 13.5t97.5 28t89.5 41.5l18 9l82 -153q-116 -58 -216.5 -90.5t-205.5 -32.5q-91 0 -165 19t-122 48.5t-84.5 70.5t-55 79.5t-30 81.5t-14 69.5 t-2.5 51.5z" />
<glyph unicode="u" d="M160 455v16v553h184v-553q0 -6 0.5 -16.5t6.5 -40t15.5 -57t31 -60.5t50.5 -56.5t76.5 -40t106.5 -16.5q216 0 252.5 36t36.5 251v553h184v-553q0 -237 -13 -307q-16 -93 -75 -126q-57 -33 -221 -37q-47 -1 -164 -1q-76 0 -140 16t-109.5 43.5t-82 62.5t-59 74.5 t-39 78.5t-24 74t-12 62.5t-5.5 43.5z" />
<glyph unicode="v" d="M160 1024h198l273 -758l274 758h199l-375 -1024h-197z" />
<glyph unicode="w" d="M160 1024h186l68 -600l127 364h184l125 -364l68 600h186l-117 -1024h-184l-172 487l-168 -487h-187z" />
<glyph unicode="x" d="M160 0l360 512l-360 512h225l246 -352l250 352h223l-359 -512l359 -512h-223l-250 352l-246 -352h-225z" />
<glyph unicode="y" d="M160 1024h198l273 -758l274 758h199l-375 -1024l-188 -512h-193l184 512z" />
<glyph unicode="z" d="M160 0q99 139 295.5 419.5t294.5 420.5h-590v184h944q-98 -139 -295 -419.5t-295 -420.5h590v-184h-944z" />
<glyph unicode="{" d="M240 584v184h81.5t64 3.5t52 4.5t37 12t28.5 17t17.5 28t12.5 36t4.5 50.5t3.5 62v79.5q0 78 7.5 141t18 110.5t34.5 83t42 59t57.5 39.5t64.5 24.5t78.5 12.5t84.5 4.5t96 0.5v-184q-224 0 -261.5 -36.5t-37.5 -254.5q0 -125 -1.5 -180t-9.5 -113.5t-26 -91.5 q18 -33 26 -91.5t9.5 -113.5t1.5 -180q0 -218 37.5 -254.5t261.5 -36.5v-184q-65 0 -96 0.5t-84.5 4.5t-78.5 12.5t-64.5 24.5t-57.5 39.5t-42 59t-34.5 83t-18 110.5t-7.5 141v79.5t-3.5 62t-4.5 50.5t-12.5 36t-17.5 28t-28.5 17t-37 12t-52 4.5t-64 3.5h-81.5z" />
<glyph unicode="|" d="M541 -184v1720h184v-1720h-184z" />
<glyph unicode="}" d="M240 0h127.5t81.5 12.5t55 22.5t23.5 52.5t13.5 79v124.5v57q0 147 5.5 216.5t28.5 111.5q-23 42 -28.5 111.5t-5.5 216.5v57v124.5t-13.5 79t-23.5 52.5t-55 22.5t-81.5 12.5h-127.5v184q65 0 96.5 -0.5t84.5 -4.5t78.5 -12.5t65 -24.5t58 -39.5t42.5 -59t34.5 -83 t18 -110.5t7.5 -141q0 -219 37.5 -256t261.5 -37v-184q-224 0 -261.5 -37t-37.5 -256q0 -78 -7.5 -141t-18 -110.5t-34.5 -83t-42.5 -59t-58 -39.5t-65 -24.5t-78.5 -12.5t-84.5 -4.5t-96.5 -0.5v184z" />
<glyph unicode="~" d="M160 580q0 6 0.5 16t6 39t15 55.5t31 59t50 55.5t75 39t104.5 16q79 0 138 -19t91 -46t56 -54t47 -46t49 -19q27 0 47 9.5t29 21.5t14.5 27.5t6 22t0.5 11.5h184q0 -9 -0.5 -20.5t-6.5 -40t-15.5 -54.5t-31 -56.5t-50 -52.5t-74.5 -37t-103 -15q-79 0 -138 19t-91 46 t-56 54t-47.5 46t-50.5 19t-46.5 -10t-28.5 -24t-14.5 -28t-6.5 -24v-10h-184z" />
<glyph unicode="&#xa0;" />
<glyph unicode="&#xa1;" d="M449 1024q0 69 56.5 126.5t125.5 57.5t126.5 -57.5t57.5 -126.5t-57.5 -126.5t-126.5 -57.5t-125.5 57.5t-56.5 126.5zM541 512h184v-1024h-184v1024z" />
<glyph unicode="&#xa2;" d="M160 766q0 215 101.5 346.5t279.5 159.5v264h184v-260q49 -2 89 -7.5t86 -18t80.5 -36.5t63.5 -58t44.5 -86.5t15.5 -119.5h-184q0 125 -195 142v-652q195 17 195 142h184q0 -67 -15.5 -119.5t-44.5 -86.5t-63.5 -58t-80.5 -36.5t-86 -18t-89 -7.5v-256h-184v260 q-178 28 -279.5 159.5t-101.5 346.5zM344 766q0 -115 51.5 -200t145.5 -115v630q-94 -30 -145.5 -115t-51.5 -200z" />
<glyph unicode="&#xa3;" d="M160 0l49 184v932q0 25 2.5 51.5t14 69.5t30 81.5t55 79.5t84.5 70.5t122 48.5t165 19q105 0 205.5 -32.5t216.5 -90.5l-82 -153q-108 53 -159 68q-82 24 -181 24q-50 0 -89.5 -5.5t-78 -21t-64.5 -41t-41.5 -68.5t-15.5 -100v-348h430v-184h-430v-400h711v-184h-944z " />
<glyph unicode="&#xa5;" d="M160 1536h205l266 -541l266 541h207l-379 -768h299v-184h-299v-72h299v-184h-299v-328h-184v328h-301v184h301v72h-301v184h301z" />
<glyph unicode="&#xa6;" d="M541 -184v676h184v-676h-184zM541 860v676h184v-676h-184z" />
<glyph unicode="&#xa7;" d="M160 -143h184q0 -63 13 -101t44.5 -56t65.5 -23t94 -5h70q70 0 102.5 1.5t77 11.5t62.5 30.5t32.5 59.5t14.5 98q0 65 -2.5 104t-18.5 68.5t-29 43t-55.5 21t-74.5 8.5t-109 1q-63 0 -93 0.5t-81.5 4t-76 10t-63 20t-56.5 33t-41.5 49t-34 68.5t-18 91t-7.5 117 q0 221 80 307q-80 92 -80 332q0 63 7.5 114.5t18 89.5t34 67t41.5 48t56.5 32t63 20t76 10t81.5 3.5t93 0.5q115 0 196.5 -16t146.5 -56t97.5 -114t32.5 -183h-184q0 51 -10 85.5t-25 54t-45 30t-58.5 13t-76.5 2.5h-74q-70 0 -102 -1.5t-76.5 -11.5t-62.5 -30.5t-32 -59.5 t-14 -98q0 -65 2.5 -104t18 -68.5t28.5 -43t55 -21t74 -8.5t109 -1q63 0 93 -0.5t81.5 -4t76.5 -10t63.5 -20t57 -33t42 -49t34 -68.5t18 -91t7.5 -117q0 -178 -113 -276q113 -89 113 -363q0 -63 -7.5 -114.5t-18 -89.5t-34 -67t-42 -48t-57 -32t-63.5 -19.5t-76.5 -10 t-81.5 -4t-93 -0.5q-115 0 -196 16t-146 56t-97 114t-32 183zM344 512q0 -56 2.5 -90t18 -59.5t28.5 -37t55 -18.5t74 -7.5t109 -0.5h8q47 0 73 1t61 5t53 12t39.5 23.5t31 38t16.5 56t7 77.5q0 55 -2.5 88.5t-18.5 58.5t-29 36t-55.5 18t-74.5 7.5t-109 0.5 q-70 0 -102 -1.5t-76.5 -12t-62.5 -32t-32 -61.5t-14 -102z" />
<glyph unicode="&#xa8;" d="M250 1286q0 69 29 98t98 29t97 -29t28 -98t-28 -98t-97 -29t-98 29t-29 98zM762 1286q0 69 29 98t98 29t97 -29t28 -98t-28 -98t-97 -29t-98 29t-29 98z" />
<glyph unicode="&#xa9;" d="M0 610v21q0 8 0.5 22t6.5 57.5t16 85.5t32.5 99t52.5 105.5t79 98.5t109.5 85.5t147 57.5t187.5 22t187.5 -21.5t147 -58.5t110 -84.5t79.5 -100t52.5 -104.5t33 -99.5t16.5 -84.5t7 -59v-21q0 -13 -1.5 -36t-14 -88.5t-34.5 -125t-69.5 -132t-111.5 -125t-168.5 -88.5 t-233.5 -36q-101 0 -187.5 21.5t-147 58t-109.5 84t-79 100t-52.5 104.5t-32.5 99.5t-16 84t-7 58.5zM172 631q0 -6 0.5 -16t4.5 -41.5t11.5 -62t24 -71.5t38 -76.5t57.5 -72t80 -62t106.5 -41.5t136.5 -16t137 15.5t107 42.5t80 61t58 72.5t38.5 76.5t24.5 72t12.5 61 t5.5 43v15q0 10 -1 26.5t-10.5 64.5t-25.5 92t-51 97t-82 91.5t-123 65t-170 26.5t-170 -25.5t-122.5 -66.5t-80.5 -90.5t-50 -98.5t-25 -90t-10 -67zM291 631q0 344 340 344h6q35 0 56.5 -0.5t59 -5t61 -12.5t52.5 -24t46 -38.5t28.5 -58t11.5 -80.5h-149q0 28 -11.5 47 t-26 28.5t-42 14.5t-44.5 5.5t-48 0.5q-191 0 -191 -221q0 -102 43 -160.5t148 -58.5q30 0 48 1t44.5 6t41.5 15t26.5 29t11.5 47h149q0 -45 -11.5 -80.5t-28.5 -58t-46 -38.5t-52.5 -24t-61 -12.5t-59 -5t-56.5 -0.5h-6q-174 0 -257 85.5t-83 254.5z" />
<glyph unicode="&#xaa;" d="M240 420v184h784v-184h-784zM240 995q0 57 18.5 97.5t49.5 65.5t82.5 39t107 19t133.5 5h211h30q0 53 -19 89t-54.5 54.5t-75.5 25.5t-92 7q-25 0 -48.5 -2t-41 -4t-39.5 -7.5t-33 -8.5t-33 -11.5t-28.5 -11t-30 -13t-27.5 -12.5l-67 117q195 92 348 92q75 0 136.5 -14.5 t101.5 -36.5t70 -52.5t45.5 -59.5t25 -61t12 -52.5t2.5 -38.5v-453h-190h-203q-191 0 -291 52t-100 175zM393 995q0 -21 8.5 -37t27 -25.5t36.5 -15.5t50 -8.5t54.5 -3t61.5 -0.5h200h41v180h-36h-205q-39 0 -64 -1t-62 -5.5t-58.5 -13.5t-37.5 -27t-16 -43z" />
<glyph unicode="&#xab;" d="M160 584v184l471 420v-209l-250 -303l250 -303v-209zM631 584v184l473 420v-209l-252 -303l252 -303v-209z" />
<glyph unicode="&#xac;" d="M160 584v184h944v-512h-184v328h-760z" />
<glyph unicode="&#xad;" d="M240 584v184h784v-184h-784z" />
<glyph unicode="&#xae;" d="M0 610v21q0 8 0.5 22t6.5 57.5t16 85.5t32.5 99t52.5 105.5t79 98.5t109.5 85.5t147 57.5t187.5 22t187.5 -21.5t147 -58.5t110 -84.5t79.5 -100t52.5 -104.5t33 -99.5t16.5 -84.5t7 -59v-21q0 -13 -1.5 -36t-14 -88.5t-34.5 -125t-69.5 -132t-111.5 -125t-168.5 -88.5 t-233.5 -36q-101 0 -187.5 21.5t-147 58t-109.5 84t-79 100t-52.5 104.5t-32.5 99.5t-16 84t-7 58.5zM172 631q0 -6 0.5 -16t4.5 -41.5t11.5 -62t24 -71.5t38 -76.5t57.5 -72t80 -62t106.5 -41.5t136.5 -16t137 15.5t107 42.5t80 61t58 72.5t38.5 76.5t24.5 72t12.5 61 t5.5 43v15q0 10 -1 26.5t-10.5 64.5t-25.5 92t-51 97t-82 91.5t-123 65t-170 26.5t-170 -25.5t-122.5 -66.5t-80.5 -90.5t-50 -98.5t-25 -90t-10 -67zM340 291v684h291q59 0 107.5 -10.5t78 -27.5t51.5 -38t32.5 -41.5t16.5 -37.5t7 -28v-10q0 -44 -27 -84t-63 -64 t-68.5 -38t-48.5 -14l207 -291h-125l-201 284h-147v-284h-111zM451 688h180q50 0 87.5 9.5t54 23.5t26.5 28t11 23l1 10q0 4 -1 10.5t-11 22.5t-26.5 28.5t-54 23t-87.5 10.5h-180v-189z" />
<glyph unicode="&#xaf;" d="M240 1081v183h788v-183h-788z" />
<glyph unicode="&#xb0;" d="M240 1151q0 79 21.5 142.5t56 102.5t76.5 68t83.5 42t76 20.5t56.5 8.5l21 1q8 0 22.5 -1t55 -8.5t77.5 -20.5t82.5 -42t78 -68t55 -102.5t22.5 -142.5q0 -78 -22 -141t-54 -102t-76.5 -67.5t-81.5 -42t-78 -21t-56.5 -8.5t-24.5 -1t-24.5 1t-56 8.5t-77.5 21t-81 42 t-76 67.5t-54 102t-22 141zM424 1151q0 -43 11.5 -78.5t29.5 -57t40.5 -37.5t44.5 -23.5t40 -11.5t30 -5h11q8 0 22.5 1.5t50.5 13t63.5 31.5t50 63.5t22.5 103.5q0 43 -11.5 78.5t-30 57.5t-40.5 38t-44.5 23.5t-41 12t-30.5 5.5h-11q-8 0 -22 -1.5t-50 -13.5t-63 -32 t-49.5 -64t-22.5 -104z" />
<glyph unicode="&#xb1;" d="M160 307v185h944v-185h-944zM160 958v185h381v282h184v-282h379v-185h-379v-282h-184v282h-381z" />
<glyph unicode="&#xb2;" d="M344 768v129q17 10 45.5 28t102 69t129 97t101.5 99.5t46 89.5q0 27 -1.5 40t-8 28t-21 21t-40.5 10.5t-66 4.5q-50 0 -78 -5t-40.5 -21t-14.5 -30t-2 -48h-152q0 27 0.5 41.5t3 40t7 40t14.5 35.5t24 33t36 26.5t50 22t66.5 12.5t85.5 5q60 0 106.5 -9t76.5 -21.5 t51 -35.5t31.5 -42t16 -49.5t6.5 -48.5t1 -50q0 -44 -31.5 -100t-76 -104t-89 -89.5t-75.5 -65.5l-32 -24h304v-129h-576z" />
<glyph unicode="&#xb3;" d="M344 995h152q0 -54 22.5 -64.5t112.5 -10.5t113.5 10.5t23.5 64.5q0 70 -27 93.5t-110 23.5v129q66 0 88 18t22 72q0 38 -19.5 45.5t-90.5 7.5t-89 -7.5t-18 -45.5h-151q0 95 65 150t193 55q129 0 195.5 -55t66.5 -150q0 -25 -4.5 -45t-17.5 -38.5t-18.5 -26t-25 -26 t-20.5 -19.5q6 -6 30.5 -25t39.5 -34t29 -48t14 -74q0 -227 -289 -227q-135 0 -211 57.5t-76 169.5z" />
<glyph unicode="&#xb4;" d="M541 1159q1 30 19 65t54.5 75.5t67.5 71t83 78.5q17 16 26 24q7 7 20 17.5t46.5 28t60.5 17.5h2q27 0 47 -22t20 -50q-1 -27 -18 -58.5t-34 -49.5l-17 -17q-113 -106 -194 -164.5t-142 -58.5h-4q-37 0 -37 43z" />
<glyph unicode="&#xb5;" d="M160 -510v1534h184v-553q0 -6 0.5 -16.5t6.5 -40t15.5 -57t31 -60.5t50.5 -56.5t76.5 -40t106.5 -16.5q216 0 252.5 36t36.5 251v553h184v-553q0 -237 -13 -307q-16 -93 -75 -126q-57 -33 -221 -37q-47 -1 -164 -1q-170 0 -287 84v-594h-184z" />
<glyph unicode="&#xb6;" d="M160 1106q0 9 1 24.5t8.5 60t20.5 85.5t41.5 90.5t67 85t101.5 60t141 24.5h563v-1536h-172v1352h-129v-1352h-172v676h-90q-78 0 -141 23.5t-101.5 61.5t-67 84t-41.5 92t-20.5 84t-8.5 61z" />
<glyph unicode="&#xb7;" d="M449 768q0 69 56.5 126.5t125.5 57.5t126.5 -57.5t57.5 -126.5t-57.5 -126.5t-126.5 -57.5t-125.5 57.5t-56.5 126.5z" />
<glyph unicode="&#xb8;" d="M406 -385h225q139 0 139 90q0 48 -32 67t-107 19h-90v393h184v-264h4h2q21 0 37.5 -1.5t47.5 -13t51.5 -32.5t36.5 -64.5t16 -103.5q0 -35 -6 -64.5t-14 -50.5t-24.5 -37.5t-30 -27.5t-37.5 -18t-40 -11t-45 -5.5t-45 -2t-47 -0.5h-225v127z" />
<glyph unicode="&#xb9;" d="M344 1176l318 360h178v-768h-152v590l-156 -182h-188z" />
<glyph unicode="&#xba;" d="M240 420v184h784v-184h-784zM240 1151q0 79 21.5 142.5t56 102.5t76.5 68t83.5 42t76 20.5t56.5 8.5l21 1q8 0 22.5 -1t55 -8.5t77.5 -20.5t82.5 -42t78 -68t55 -102.5t22.5 -142.5q0 -78 -22 -141t-54 -102t-76.5 -67.5t-81.5 -42t-78 -21t-56.5 -8.5t-24.5 -1t-24.5 1 t-56 8.5t-77.5 21t-81 42t-76 67.5t-54 102t-22 141zM424 1151q0 -43 11.5 -78.5t29.5 -57t40.5 -37.5t44.5 -23.5t40 -11.5t30 -5h11q8 0 22.5 1.5t50.5 13t63.5 31.5t50 63.5t22.5 103.5q0 43 -11.5 78.5t-30 57.5t-40.5 38t-44.5 23.5t-41 12t-30.5 5.5h-11 q-8 0 -22 -1.5t-50 -13.5t-63 -32t-49.5 -64t-22.5 -104z" />
<glyph unicode="&#xbb;" d="M160 164v209l252 303l-252 303v209l471 -420v-184zM631 164v209l254 303l-254 303v209l473 -420v-184z" />
<glyph unicode="&#xbf;" d="M160 -123q0 72 9.5 128.5t25 96t42.5 67.5t55.5 45t71.5 26.5t82 13t95 4.5v258h184v-440h-94h-10q-33 0 -51 -0.5t-45.5 -1.5t-42 -3.5t-35.5 -7.5t-31.5 -12.5t-24.5 -18.5t-21 -25.5t-14 -33.5t-9.5 -43t-2.5 -53q0 -59 14 -98t32 -59.5t62.5 -30.5t76.5 -11.5 t102 -1.5t102.5 1.5t77 11.5t62.5 30.5t32.5 59.5t14.5 98h184q0 -63 -7.5 -114.5t-18 -89.5t-34 -67t-42 -48t-57 -32t-63.5 -19.5t-76.5 -10t-81.5 -4t-93 -0.5t-93 0.5t-81.5 3.5t-76 10t-63 20t-56.5 32t-41.5 48t-34 67t-18 89.5t-7.5 114.5zM449 1028q0 69 56.5 126.5 t125.5 57.5t126.5 -57.5t57.5 -126.5t-57.5 -126.5t-126.5 -57.5t-125.5 57.5t-56.5 126.5z" />
<glyph unicode="&#xc0;" d="M160 0l372 1536h197l375 -1536h-191l-102 420h-360l-101 -420h-190zM276 1976q0 28 20.5 50t47.5 22h2q27 0 59 -16t50 -32l18 -15q131 -122 168 -164q79 -89 82 -150q0 -43 -37 -43h-4q-61 0 -142 58.5t-194 164.5q-8 7 -19 19.5t-30.5 45.5t-20.5 60zM498 604h268 l-135 551z" />
<glyph unicode="&#xc1;" d="M160 0l372 1536h197l375 -1536h-191l-102 420h-360l-101 -420h-190zM498 604h268l-135 551zM541 1671q1 30 19 65t54.5 75.5t67.5 71t83 78.5q17 16 26 24q7 7 20 17.5t46.5 28t60.5 17.5h2q27 0 47 -22t20 -50q-1 -27 -18 -58.5t-34 -49.5l-17 -17 q-113 -106 -194 -164.5t-142 -58.5h-4q-37 0 -37 43z" />
<glyph unicode="&#xc2;" d="M160 0l372 1536h197l375 -1536h-191l-102 420h-360l-101 -420h-190zM240 1628l301 420h184l299 -420h-197l-196 250l-193 -250h-198zM498 604h268l-135 551z" />
<glyph unicode="&#xc3;" d="M160 0l372 1536h197l375 -1536h-191l-102 420h-360l-101 -420h-190zM160 1714q0 6 0.5 16t6 39t15 56t31 59t50 55.5t75 39.5t104.5 16q79 0 138 -19t91 -46t56 -54.5t47 -46.5t49 -19q27 0 47 9.5t29 21.5t14.5 28t6 22.5t0.5 11.5h184q0 -9 -0.5 -20.5t-6.5 -40.5 t-15.5 -54.5t-31 -56.5t-50 -53t-74.5 -37t-103 -15q-79 0 -138 19t-91 46t-56 54t-47.5 46t-50.5 19t-46.5 -10t-28.5 -24t-14.5 -28t-6.5 -24v-10h-184zM498 604h268l-135 551z" />
<glyph unicode="&#xc4;" d="M160 0l372 1536h197l375 -1536h-191l-102 420h-360l-101 -420h-190zM250 1755q0 69 29 98t98 29t97 -29t28 -98t-28 -98t-97 -29t-98 29t-29 98zM498 604h268l-135 551zM762 1755q0 69 29 98t98 29t97 -29t28 -98t-28 -98t-97 -29t-98 29t-29 98z" />
<glyph unicode="&#xc5;" d="M160 0l372 1536h197l375 -1536h-191l-102 420h-360l-101 -420h-190zM377 1839q0 5 0.5 13.5t6 30t14 41.5t28 43.5t45 40.5t67.5 28.5t93 11.5q52 0 94.5 -11.5t68.5 -30t45.5 -40.5t28.5 -44.5t14.5 -41t5.5 -30.5l1 -11q0 -4 -0.5 -12t-6 -29.5t-14.5 -41.5 t-28.5 -44.5t-45.5 -42t-68.5 -29.5t-94.5 -12q-51 0 -93 11.5t-67.5 29t-45 41t-28 43.5t-14 42t-6 30.5t-0.5 13.5zM498 604h268l-135 551zM504 1839q0 -3 1 -8.5t7.5 -20t18.5 -25t38 -19.5t62 -9t62 8.5t38.5 20.5t19.5 24t8 20l1 9q0 3 -1 8.5t-8 20t-19.5 25 t-38.5 19.5t-62 9t-62 -8.5t-38 -20.5t-18.5 -24t-7.5 -20z" />
<glyph unicode="&#xc6;" d="M160 0l372 1536h572v-184h-289v-492h197v-184h-197v-492h289v-184h-473v420h-180l-103 -420h-188zM496 604h135v551z" />
<glyph unicode="&#xc7;" d="M160 768q0 214 32.5 365.5t96 238.5t147 125.5t195.5 38.5q42 0 65.5 -0.5t68 -3.5t71.5 -8.5t67 -16.5t65 -27t53.5 -41t44.5 -57t27 -76.5t11 -97.5h-184q0 34 -13.5 60t-40.5 41t-52.5 24.5t-64 13t-60 4.5t-54.5 1h-4q-71 0 -122.5 -29.5t-89.5 -97t-56.5 -181 t-18.5 -276.5t18.5 -276.5t56.5 -181t89.5 -97t122.5 -29.5h4q33 0 54.5 1t60 4.5t64 13t52.5 24.5t40.5 41t13.5 60h184q0 -67 -15.5 -119.5t-44.5 -86.5t-63.5 -58t-80.5 -36.5t-86 -18t-89 -7.5v-82h4h2q21 0 37.5 -1.5t47.5 -13t51.5 -32.5t36.5 -64.5t16 -103.5 q0 -35 -6 -64.5t-14 -50.5t-24.5 -37.5t-30 -27.5t-37.5 -18t-40 -11t-45 -5.5t-45 -2t-47 -0.5h-225v127h225q139 0 139 90q0 48 -32 67t-107 19h-90v217q-72 11 -129.5 43t-105 91t-79.5 144.5t-49.5 206.5t-17.5 275z" />
<glyph unicode="&#xc8;" d="M160 0v1536h944v-184h-760v-492h381v-184h-381v-492h760v-184h-944zM276 1976q0 28 20.5 50t47.5 22h2q27 0 59 -16t50 -32l18 -15q131 -122 168 -164q79 -89 82 -150q0 -43 -37 -43h-4q-61 0 -142 58.5t-194 164.5q-8 7 -19 19.5t-30.5 45.5t-20.5 60z" />
<glyph unicode="&#xc9;" d="M160 0v1536h944v-184h-760v-492h381v-184h-381v-492h760v-184h-944zM541 1671q1 30 19 65t54.5 75.5t67.5 71t83 78.5q17 16 26 24q7 7 20 17.5t46.5 28t60.5 17.5h2q27 0 47 -22t20 -50q-1 -27 -18 -58.5t-34 -49.5l-17 -17q-113 -106 -194 -164.5t-142 -58.5h-4 q-37 0 -37 43z" />
<glyph unicode="&#xca;" d="M160 0v1536h944v-184h-760v-492h381v-184h-381v-492h760v-184h-944zM240 1628l301 420h184l299 -420h-197l-196 250l-193 -250h-198z" />
<glyph unicode="&#xcb;" d="M160 0v1536h944v-184h-760v-492h381v-184h-381v-492h760v-184h-944zM250 1755q0 69 29 98t98 29t97 -29t28 -98t-28 -98t-97 -29t-98 29t-29 98zM762 1755q0 69 29 98t98 29t97 -29t28 -98t-28 -98t-97 -29t-98 29t-29 98z" />
<glyph unicode="&#xcc;" d="M201 0v184h340v1168h-340v184h864v-184h-340v-1168h340v-184h-864zM276 1976q0 28 20.5 50t47.5 22h2q27 0 59 -16t50 -32l18 -15q131 -122 168 -164q79 -89 82 -150q0 -43 -37 -43h-4q-61 0 -142 58.5t-194 164.5q-8 7 -19 19.5t-30.5 45.5t-20.5 60z" />
<glyph unicode="&#xcd;" d="M201 0v184h340v1168h-340v184h864v-184h-340v-1168h340v-184h-864zM541 1671q1 30 19 65t54.5 75.5t67.5 71t83 78.5q17 16 26 24q7 7 20 17.5t46.5 28t60.5 17.5h2q27 0 47 -22t20 -50q-1 -27 -18 -58.5t-34 -49.5l-17 -17q-113 -106 -194 -164.5t-142 -58.5h-4 q-37 0 -37 43z" />
<glyph unicode="&#xce;" d="M201 0v184h340v1168h-340v184h864v-184h-340v-1168h340v-184h-864zM240 1628l301 420h184l299 -420h-197l-196 250l-193 -250h-198z" />
<glyph unicode="&#xcf;" d="M201 0v184h340v1168h-340v184h864v-184h-340v-1168h340v-184h-864zM250 1755q0 69 29 98t98 29t97 -29t28 -98t-28 -98t-97 -29t-98 29t-29 98zM762 1755q0 69 29 98t98 29t97 -29t28 -98t-28 -98t-97 -29t-98 29t-29 98z" />
<glyph unicode="&#xd0;" d="M160 0v1536h471q96 0 174 -42.5t126 -110t83.5 -149.5t52 -164t26 -149.5t10.5 -110.5l1 -42q0 -10 -0.5 -27t-5 -69.5t-12.5 -103.5t-24.5 -120t-39 -128.5t-59.5 -120t-82 -103t-109.5 -69.5t-140.5 -27h-471zM344 184h287q59 0 106.5 32t76.5 83.5t51 114t32 125 t16 114t7 83.5v32q0 12 -0.5 33t-6.5 82t-16 116t-32 122.5t-51 116t-76.5 81.5t-106.5 33h-287v-492h381v-184h-381v-492z" />
<glyph unicode="&#xd1;" d="M160 0v1536h205q276 -578 555 -1155v1155h184v-1536h-203q-465 962 -557 1155v-1155h-184zM160 1714q0 6 0.5 16t6 39t15 56t31 59t50 55.5t75 39.5t104.5 16q79 0 138 -19t91 -46t56 -54.5t47 -46.5t49 -19q27 0 47 9.5t29 21.5t14.5 28t6 22.5t0.5 11.5h184 q0 -9 -0.5 -20.5t-6.5 -40.5t-15.5 -54.5t-31 -56.5t-50 -53t-74.5 -37t-103 -15q-79 0 -138 19t-91 46t-56 54t-47.5 46t-50.5 19t-46.5 -10t-28.5 -24t-14.5 -28t-6.5 -24v-10h-184z" />
<glyph unicode="&#xd2;" d="M160 768q0 162 12.5 284t29 204t55 136.5t67 83t90 42.5t99.5 16t118 2q70 0 104 -1.5t90 -10t83 -29t66 -55.5t57 -91.5t38 -136t27.5 -191t7.5 -253.5t-7.5 -253.5t-27.5 -191t-38 -136t-57 -91.5t-66 -55.5t-83 -29t-90 -10t-104 -1.5q-80 0 -118 2t-99.5 16t-90 42.5 t-67 83t-55 136.5t-29 204t-12.5 284zM276 1976q0 28 20.5 50t47.5 22h2q27 0 59 -16t50 -32l18 -15q131 -122 168 -164q79 -89 82 -150q0 -43 -37 -43h-4q-61 0 -142 58.5t-194 164.5q-8 7 -19 19.5t-30.5 45.5t-20.5 60zM344 768q0 -124 7 -216.5t16.5 -155t32.5 -103.5 t40 -63t54.5 -32.5t61.5 -12t75 -1.5t75 1.5t62 12t55 32.5t40 63t32.5 103.5t17 155t7.5 216.5t-7.5 216.5t-17 155t-32.5 103.5t-40 63t-55 32.5t-62 12t-75 1.5t-75 -1.5t-61.5 -12t-54.5 -32.5t-40 -63t-32.5 -103.5t-16.5 -155t-7 -216.5z" />
<glyph unicode="&#xd3;" d="M160 768q0 162 12.5 284t29 204t55 136.5t67 83t90 42.5t99.5 16t118 2q70 0 104 -1.5t90 -10t83 -29t66 -55.5t57 -91.5t38 -136t27.5 -191t7.5 -253.5t-7.5 -253.5t-27.5 -191t-38 -136t-57 -91.5t-66 -55.5t-83 -29t-90 -10t-104 -1.5q-80 0 -118 2t-99.5 16t-90 42.5 t-67 83t-55 136.5t-29 204t-12.5 284zM344 768q0 -124 7 -216.5t16.5 -155t32.5 -103.5t40 -63t54.5 -32.5t61.5 -12t75 -1.5t75 1.5t62 12t55 32.5t40 63t32.5 103.5t17 155t7.5 216.5t-7.5 216.5t-17 155t-32.5 103.5t-40 63t-55 32.5t-62 12t-75 1.5t-75 -1.5t-61.5 -12 t-54.5 -32.5t-40 -63t-32.5 -103.5t-16.5 -155t-7 -216.5zM541 1671q1 30 19 65t54.5 75.5t67.5 71t83 78.5q17 16 26 24q7 7 20 17.5t46.5 28t60.5 17.5h2q27 0 47 -22t20 -50q-1 -27 -18 -58.5t-34 -49.5l-17 -17q-113 -106 -194 -164.5t-142 -58.5h-4q-37 0 -37 43z" />
<glyph unicode="&#xd4;" d="M160 768q0 162 12.5 284t29 204t55 136.5t67 83t90 42.5t99.5 16t118 2q70 0 104 -1.5t90 -10t83 -29t66 -55.5t57 -91.5t38 -136t27.5 -191t7.5 -253.5t-7.5 -253.5t-27.5 -191t-38 -136t-57 -91.5t-66 -55.5t-83 -29t-90 -10t-104 -1.5q-80 0 -118 2t-99.5 16t-90 42.5 t-67 83t-55 136.5t-29 204t-12.5 284zM240 1628l301 420h184l299 -420h-197l-196 250l-193 -250h-198zM344 768q0 -124 7 -216.5t16.5 -155t32.5 -103.5t40 -63t54.5 -32.5t61.5 -12t75 -1.5t75 1.5t62 12t55 32.5t40 63t32.5 103.5t17 155t7.5 216.5t-7.5 216.5t-17 155 t-32.5 103.5t-40 63t-55 32.5t-62 12t-75 1.5t-75 -1.5t-61.5 -12t-54.5 -32.5t-40 -63t-32.5 -103.5t-16.5 -155t-7 -216.5z" />
<glyph unicode="&#xd5;" d="M160 768q0 162 12.5 284t29 204t55 136.5t67 83t90 42.5t99.5 16t118 2q70 0 104 -1.5t90 -10t83 -29t66 -55.5t57 -91.5t38 -136t27.5 -191t7.5 -253.5t-7.5 -253.5t-27.5 -191t-38 -136t-57 -91.5t-66 -55.5t-83 -29t-90 -10t-104 -1.5q-80 0 -118 2t-99.5 16t-90 42.5 t-67 83t-55 136.5t-29 204t-12.5 284zM160 1714q0 6 0.5 16t6 39t15 56t31 59t50 55.5t75 39.5t104.5 16q79 0 138 -19t91 -46t56 -54.5t47 -46.5t49 -19q27 0 47 9.5t29 21.5t14.5 28t6 22.5t0.5 11.5h184q0 -9 -0.5 -20.5t-6.5 -40.5t-15.5 -54.5t-31 -56.5t-50 -53 t-74.5 -37t-103 -15q-79 0 -138 19t-91 46t-56 54t-47.5 46t-50.5 19t-46.5 -10t-28.5 -24t-14.5 -28t-6.5 -24v-10h-184zM344 768q0 -124 7 -216.5t16.5 -155t32.5 -103.5t40 -63t54.5 -32.5t61.5 -12t75 -1.5t75 1.5t62 12t55 32.5t40 63t32.5 103.5t17 155t7.5 216.5 t-7.5 216.5t-17 155t-32.5 103.5t-40 63t-55 32.5t-62 12t-75 1.5t-75 -1.5t-61.5 -12t-54.5 -32.5t-40 -63t-32.5 -103.5t-16.5 -155t-7 -216.5z" />
<glyph unicode="&#xd6;" d="M160 768q0 162 12.5 284t29 204t55 136.5t67 83t90 42.5t99.5 16t118 2q70 0 104 -1.5t90 -10t83 -29t66 -55.5t57 -91.5t38 -136t27.5 -191t7.5 -253.5t-7.5 -253.5t-27.5 -191t-38 -136t-57 -91.5t-66 -55.5t-83 -29t-90 -10t-104 -1.5q-80 0 -118 2t-99.5 16t-90 42.5 t-67 83t-55 136.5t-29 204t-12.5 284zM250 1755q0 69 29 98t98 29t97 -29t28 -98t-28 -98t-97 -29t-98 29t-29 98zM344 768q0 -124 7 -216.5t16.5 -155t32.5 -103.5t40 -63t54.5 -32.5t61.5 -12t75 -1.5t75 1.5t62 12t55 32.5t40 63t32.5 103.5t17 155t7.5 216.5t-7.5 216.5 t-17 155t-32.5 103.5t-40 63t-55 32.5t-62 12t-75 1.5t-75 -1.5t-61.5 -12t-54.5 -32.5t-40 -63t-32.5 -103.5t-16.5 -155t-7 -216.5zM762 1755q0 69 29 98t98 29t97 -29t28 -98t-28 -98t-97 -29t-98 29t-29 98z" />
<glyph unicode="&#xd7;" d="M209 631l295 301l-295 301l129 129l297 -301l291 301l131 -129l-295 -301l295 -301l-133 -129l-289 301l-295 -301z" />
<glyph unicode="&#xd8;" d="M160 768q0 162 12.5 284t29 204t55 136.5t67 83t90 42.5t99.5 16t118 2q89 0 180 -49l16 49h197l-70 -182q150 -203 150 -586q0 -142 -7.5 -253.5t-27.5 -191t-38 -136t-57 -91.5t-66 -55.5t-83 -29t-90 -10t-104 -1.5q-85 0 -176 49l-19 -49h-196l71 180 q-151 209 -151 588zM344 768q0 -268 33 -410l377 985q-42 9 -123 9q-51 0 -75 -1.5t-61.5 -12t-54.5 -32.5t-40 -63t-32.5 -103.5t-16.5 -155t-7 -216.5zM510 193q42 -9 121 -9q51 0 75 1.5t62 12t55 32.5t40 63t32.5 103.5t17 155t7.5 216.5q0 260 -35 410z" />
<glyph unicode="&#xd9;" d="M160 455v16v1065h184v-1065q0 -6 0.5 -16.5t6.5 -40t15.5 -57t31 -60.5t50.5 -56.5t76.5 -40t106.5 -16.5q216 0 252.5 36t36.5 251v1065h184v-1065q0 -237 -13 -307q-16 -93 -75 -126q-57 -33 -221 -37q-47 -1 -164 -1q-76 0 -140 16t-109.5 43.5t-82 62.5t-59 74.5 t-39 78.5t-24 74t-12 62.5t-5.5 43.5zM276 1976q0 28 20.5 50t47.5 22h2q27 0 59 -16t50 -32l18 -15q131 -122 168 -164q79 -89 82 -150q0 -43 -37 -43h-4q-61 0 -142 58.5t-194 164.5q-8 7 -19 19.5t-30.5 45.5t-20.5 60z" />
<glyph unicode="&#xda;" d="M160 455v16v1065h184v-1065q0 -6 0.5 -16.5t6.5 -40t15.5 -57t31 -60.5t50.5 -56.5t76.5 -40t106.5 -16.5q216 0 252.5 36t36.5 251v1065h184v-1065q0 -237 -13 -307q-16 -93 -75 -126q-57 -33 -221 -37q-47 -1 -164 -1q-76 0 -140 16t-109.5 43.5t-82 62.5t-59 74.5 t-39 78.5t-24 74t-12 62.5t-5.5 43.5zM541 1671q1 30 19 65t54.5 75.5t67.5 71t83 78.5q17 16 26 24q7 7 20 17.5t46.5 28t60.5 17.5h2q27 0 47 -22t20 -50q-1 -27 -18 -58.5t-34 -49.5l-17 -17q-113 -106 -194 -164.5t-142 -58.5h-4q-37 0 -37 43z" />
<glyph unicode="&#xdb;" d="M160 455v16v1065h184v-1065q0 -6 0.5 -16.5t6.5 -40t15.5 -57t31 -60.5t50.5 -56.5t76.5 -40t106.5 -16.5q216 0 252.5 36t36.5 251v1065h184v-1065q0 -237 -13 -307q-16 -93 -75 -126q-57 -33 -221 -37q-47 -1 -164 -1q-76 0 -140 16t-109.5 43.5t-82 62.5t-59 74.5 t-39 78.5t-24 74t-12 62.5t-5.5 43.5zM240 1628l301 420h184l299 -420h-197l-196 250l-193 -250h-198z" />
<glyph unicode="&#xdc;" d="M160 455v16v1065h184v-1065q0 -6 0.5 -16.5t6.5 -40t15.5 -57t31 -60.5t50.5 -56.5t76.5 -40t106.5 -16.5q216 0 252.5 36t36.5 251v1065h184v-1065q0 -237 -13 -307q-16 -93 -75 -126q-57 -33 -221 -37q-47 -1 -164 -1q-76 0 -140 16t-109.5 43.5t-82 62.5t-59 74.5 t-39 78.5t-24 74t-12 62.5t-5.5 43.5zM250 1755q0 69 29 98t98 29t97 -29t28 -98t-28 -98t-97 -29t-98 29t-29 98zM762 1755q0 69 29 98t98 29t97 -29t28 -98t-28 -98t-97 -29t-98 29t-29 98z" />
<glyph unicode="&#xdd;" d="M160 1536h205l266 -541l266 541h207l-379 -768v-768h-184v768zM541 1671q1 30 19 65t54.5 75.5t67.5 71t83 78.5q17 16 26 24q7 7 20 17.5t46.5 28t60.5 17.5h2q27 0 47 -22t20 -50q-1 -27 -18 -58.5t-34 -49.5l-17 -17q-113 -106 -194 -164.5t-142 -58.5h-4 q-37 0 -37 43z" />
<glyph unicode="&#xde;" d="M160 0v1536h184v-184h287q96 0 174 -23t126 -60t83.5 -82t52 -90t26 -82t10.5 -60l1 -23q0 -9 -1 -24t-10.5 -58.5t-26 -83t-52 -87.5t-83.5 -82.5t-126 -58.5t-174 -24h-287v-514h-184zM344 698h287q59 0 106.5 13t76.5 33.5t51 45.5t32 50t16 45.5t7 33.5v13 q0 5 -0.5 13.5t-6.5 33t-16 46.5t-32 49t-51 46.5t-76.5 33t-106.5 13.5h-287v-469z" />
<glyph unicode="&#xdf;" d="M205 0v1130q0 190 108 298t318 108t318 -108t108 -298q0 -25 -3 -49t-6 -43.5t-11 -40.5t-12.5 -34.5t-16 -32t-17 -27.5t-19 -26t-17.5 -22t-18.5 -21.5t-16.5 -18.5q10 -12 38.5 -36.5t50 -48t45.5 -60.5t37 -91.5t13 -123.5q0 -123 -57.5 -226.5t-166.5 -166 t-249 -62.5v184q140 0 214.5 67.5t74.5 203.5t-74.5 203t-214.5 67v184q110 0 176.5 58t66.5 163t-66.5 163.5t-176.5 58.5t-176 -58.5t-66 -163.5v-1130h-184z" />
<glyph unicode="&#xe0;" d="M160 303q0 76 22.5 130.5t60 87t99.5 51.5t129 25.5t160 6.5h254h35q0 57 -15.5 100t-41.5 68.5t-64.5 41t-78 21t-89.5 5.5q-72 0 -135 -13.5t-97.5 -28t-89.5 -41.5l-18 -9l-82 153q116 58 216.5 90.5t205.5 32.5q91 0 165 -19t122 -48.5t84.5 -70.5t55 -79.5t30 -81.5 t14 -69.5t2.5 -51.5v-604h-227h-246q-112 0 -195.5 15.5t-147 50t-96 94t-32.5 143.5zM276 1464q0 28 20.5 50t47.5 22h2q27 0 59 -16t50 -32l18 -15q131 -122 168 -164q79 -89 82 -150q0 -43 -37 -43h-4q-61 0 -142 58.5t-194 164.5q-8 7 -19 19.5t-30.5 45.5t-20.5 60z M344 303q0 -25 9 -44t21.5 -31.5t37 -21t44 -13t55.5 -6.5t57 -2.5t63 -0.5h239h50v236h-43h-246h-13q-38 0 -61.5 -1t-60.5 -4t-60 -10.5t-46 -20t-34.5 -33t-11.5 -48.5z" />
<glyph unicode="&#xe1;" d="M160 303q0 76 22.5 130.5t60 87t99.5 51.5t129 25.5t160 6.5h254h35q0 57 -15.5 100t-41.5 68.5t-64.5 41t-78 21t-89.5 5.5q-72 0 -135 -13.5t-97.5 -28t-89.5 -41.5l-18 -9l-82 153q116 58 216.5 90.5t205.5 32.5q91 0 165 -19t122 -48.5t84.5 -70.5t55 -79.5t30 -81.5 t14 -69.5t2.5 -51.5v-604h-227h-246q-112 0 -195.5 15.5t-147 50t-96 94t-32.5 143.5zM344 303q0 -25 9 -44t21.5 -31.5t37 -21t44 -13t55.5 -6.5t57 -2.5t63 -0.5h239h50v236h-43h-246h-13q-38 0 -61.5 -1t-60.5 -4t-60 -10.5t-46 -20t-34.5 -33t-11.5 -48.5zM541 1159 q1 30 19 65t54.5 75.5t67.5 71t83 78.5q17 16 26 24q7 7 20 17.5t46.5 28t60.5 17.5h2q27 0 47 -22t20 -50q-1 -27 -18 -58.5t-34 -49.5l-17 -17q-113 -106 -194 -164.5t-142 -58.5h-4q-37 0 -37 43z" />
<glyph unicode="&#xe2;" d="M160 303q0 76 22.5 130.5t60 87t99.5 51.5t129 25.5t160 6.5h254h35q0 57 -15.5 100t-41.5 68.5t-64.5 41t-78 21t-89.5 5.5q-72 0 -135 -13.5t-97.5 -28t-89.5 -41.5l-18 -9l-82 153q116 58 216.5 90.5t205.5 32.5q91 0 165 -19t122 -48.5t84.5 -70.5t55 -79.5t30 -81.5 t14 -69.5t2.5 -51.5v-604h-227h-246q-112 0 -195.5 15.5t-147 50t-96 94t-32.5 143.5zM240 1116l301 420h184l299 -420h-197l-196 250l-193 -250h-198zM344 303q0 -25 9 -44t21.5 -31.5t37 -21t44 -13t55.5 -6.5t57 -2.5t63 -0.5h239h50v236h-43h-246h-13q-38 0 -61.5 -1 t-60.5 -4t-60 -10.5t-46 -20t-34.5 -33t-11.5 -48.5z" />
<glyph unicode="&#xe3;" d="M160 303q0 76 22.5 130.5t60 87t99.5 51.5t129 25.5t160 6.5h254h35q0 57 -15.5 100t-41.5 68.5t-64.5 41t-78 21t-89.5 5.5q-72 0 -135 -13.5t-97.5 -28t-89.5 -41.5l-18 -9l-82 153q116 58 216.5 90.5t205.5 32.5q91 0 165 -19t122 -48.5t84.5 -70.5t55 -79.5t30 -81.5 t14 -69.5t2.5 -51.5v-604h-227h-246q-112 0 -195.5 15.5t-147 50t-96 94t-32.5 143.5zM160 1255q0 6 0.5 16t6 39t15 56t31 59t50 55.5t75 39.5t104.5 16q79 0 138 -19t91 -46t56 -54t47 -46t49 -19q27 0 47 9.5t29 21.5t14.5 27.5t6 22t0.5 11.5h184q0 -9 -0.5 -20.5 t-6.5 -40.5t-15.5 -54.5t-31 -56.5t-50 -53t-74.5 -37t-103 -15q-79 0 -138 19t-91 46t-56 54.5t-47.5 46.5t-50.5 19t-46.5 -10t-28.5 -24t-14.5 -28.5t-6.5 -24.5v-10h-184zM344 303q0 -25 9 -44t21.5 -31.5t37 -21t44 -13t55.5 -6.5t57 -2.5t63 -0.5h239h50v236h-43h-246 h-13q-38 0 -61.5 -1t-60.5 -4t-60 -10.5t-46 -20t-34.5 -33t-11.5 -48.5z" />
<glyph unicode="&#xe4;" d="M160 303q0 76 22.5 130.5t60 87t99.5 51.5t129 25.5t160 6.5h254h35q0 57 -15.5 100t-41.5 68.5t-64.5 41t-78 21t-89.5 5.5q-72 0 -135 -13.5t-97.5 -28t-89.5 -41.5l-18 -9l-82 153q116 58 216.5 90.5t205.5 32.5q91 0 165 -19t122 -48.5t84.5 -70.5t55 -79.5t30 -81.5 t14 -69.5t2.5 -51.5v-604h-227h-246q-112 0 -195.5 15.5t-147 50t-96 94t-32.5 143.5zM250 1286q0 69 29 98t98 29t97 -29t28 -98t-28 -98t-97 -29t-98 29t-29 98zM344 303q0 -25 9 -44t21.5 -31.5t37 -21t44 -13t55.5 -6.5t57 -2.5t63 -0.5h239h50v236h-43h-246h-13 q-38 0 -61.5 -1t-60.5 -4t-60 -10.5t-46 -20t-34.5 -33t-11.5 -48.5zM762 1286q0 69 29 98t98 29t97 -29t28 -98t-28 -98t-97 -29t-98 29t-29 98z" />
<glyph unicode="&#xe5;" d="M160 303q0 76 22.5 130.5t60 87t99.5 51.5t129 25.5t160 6.5h254h35q0 57 -15.5 100t-41.5 68.5t-64.5 41t-78 21t-89.5 5.5q-72 0 -135 -13.5t-97.5 -28t-89.5 -41.5l-18 -9l-82 153q116 58 216.5 90.5t205.5 32.5q91 0 165 -19t122 -48.5t84.5 -70.5t55 -79.5t30 -81.5 t14 -69.5t2.5 -51.5v-604h-227h-246q-112 0 -195.5 15.5t-147 50t-96 94t-32.5 143.5zM344 303q0 -25 9 -44t21.5 -31.5t37 -21t44 -13t55.5 -6.5t57 -2.5t63 -0.5h239h50v236h-43h-246h-13q-38 0 -61.5 -1t-60.5 -4t-60 -10.5t-46 -20t-34.5 -33t-11.5 -48.5zM377 1327 q0 5 0.5 13.5t6 30t14 41.5t28 43.5t45 40.5t67.5 28.5t93 11.5q52 0 94.5 -11.5t68.5 -30t45.5 -40.5t28.5 -44.5t14.5 -41t5.5 -30.5l1 -11q0 -4 -0.5 -12t-6 -29.5t-14.5 -41.5t-28.5 -44.5t-45.5 -42t-68.5 -29.5t-94.5 -12q-51 0 -93 11.5t-67.5 29t-45 41t-28 43.5 t-14 42t-6 30.5t-0.5 13.5zM504 1327q0 -3 1 -8.5t7.5 -20t18.5 -25t38 -19.5t62 -9t62 8.5t38.5 20.5t19.5 24t8 20l1 9q0 3 -1 8.5t-8 20t-19.5 25t-38.5 19.5t-62 9t-62 -8.5t-38 -20.5t-18.5 -24t-7.5 -20z" />
<glyph unicode="&#xe6;" d="M160 287q0 100 11.5 158.5t45 94.5t84.5 48t139 12h101v88v8q0 43 -1 63.5t-6 42t-16.5 29t-29.5 12.5t-48 5q-62 0 -105 -17t-102 -63l-73 129q9 7 35 30t37 31t37 24.5t47 23t54 12.5t70 6q92 0 160 -61q23 42 67 51.5t160 9.5h89.5t65 -9t51 -17t32 -39t23 -59t10 -93 t6.5 -125v-170v-88h-379v-10q0 -69 1 -99t9 -67.5t21.5 -50t43.5 -26.5t70 -16.5t105 -2.5h129v-152h-664q-87 0 -139 12t-85 46t-44.5 87t-11.5 142zM311 287q0 -83 29.5 -109t99.5 -26h101v272h-101q-69 0 -99 -26.5t-30 -110.5zM725 600h227v79t-2.5 58.5t-4.5 45 t-9.5 29t-14.5 20.5t-22.5 9.5t-30.5 6t-41 0.5q-70 0 -86 -19.5t-16 -103.5v-125z" />
<glyph unicode="&#xe7;" d="M160 512q0 243 126.5 377.5t344.5 134.5q42 0 65.5 -0.5t68 -3.5t71.5 -8.5t67 -16.5t65 -27t53.5 -41t44.5 -57t27 -76.5t11 -97.5h-184q0 34 -13.5 60t-40.5 41t-52.5 24.5t-64 13t-60 4.5t-54.5 1h-4q-134 0 -210.5 -92.5t-76.5 -235.5t76.5 -235.5t210.5 -92.5h4 q33 0 54.5 1t60 4.5t64 13t52.5 24.5t40.5 41t13.5 60h184q0 -67 -15.5 -119.5t-44.5 -86.5t-63.5 -58t-80.5 -36.5t-86 -18t-89 -7.5v-82h4h2q21 0 37.5 -1.5t47.5 -13t51.5 -32.5t36.5 -64.5t16 -103.5q0 -35 -6 -64.5t-14 -50.5t-24.5 -37.5t-30 -27.5t-37.5 -18t-40 -11 t-45 -5.5t-45 -2t-47 -0.5h-225v127h225q139 0 139 90q0 48 -32 67t-107 19h-90v215q-178 28 -279.5 159.5t-101.5 346.5z" />
<glyph unicode="&#xe8;" d="M160 512q0 76 4.5 138.5t17.5 111t25 86.5t37 65.5t43 46.5t55 31t60 19t70.5 10t75 3.5t83.5 0.5t83.5 -0.5t75 -3.5t71 -10t60.5 -19t55 -31t43.5 -46.5t37.5 -65.5t24.5 -86.5t17.5 -111t5 -138.5v-92h-760q0 -70 14 -115.5t32 -69.5t62.5 -35.5t76.5 -13.5t102 -2 h381v-184h-381q-56 0 -83.5 0.5t-75 3.5t-70.5 10t-60 19t-55 31t-43 46.5t-37 65.5t-25 86.5t-17.5 111t-4.5 138.5zM276 1464q0 28 20.5 50t47.5 22h2q27 0 59 -16t50 -32l18 -15q131 -122 168 -164q79 -89 82 -150q0 -43 -37 -43h-4q-61 0 -142 58.5t-194 164.5 q-8 7 -19 19.5t-30.5 45.5t-20.5 60zM344 604h576q0 35 -2.5 64t-10 51.5t-14.5 39.5t-22 30t-26 21.5t-33.5 14t-36.5 9t-43.5 5t-47 1.5h-53.5q-70 0 -102 -2t-76.5 -13.5t-62.5 -35.5t-32 -69.5t-14 -115.5z" />
<glyph unicode="&#xe9;" d="M160 512q0 76 4.5 138.5t17.5 111t25 86.5t37 65.5t43 46.5t55 31t60 19t70.5 10t75 3.5t83.5 0.5t83.5 -0.5t75 -3.5t71 -10t60.5 -19t55 -31t43.5 -46.5t37.5 -65.5t24.5 -86.5t17.5 -111t5 -138.5v-92h-760q0 -70 14 -115.5t32 -69.5t62.5 -35.5t76.5 -13.5t102 -2 h381v-184h-381q-56 0 -83.5 0.5t-75 3.5t-70.5 10t-60 19t-55 31t-43 46.5t-37 65.5t-25 86.5t-17.5 111t-4.5 138.5zM344 604h576q0 35 -2.5 64t-10 51.5t-14.5 39.5t-22 30t-26 21.5t-33.5 14t-36.5 9t-43.5 5t-47 1.5h-53.5q-70 0 -102 -2t-76.5 -13.5t-62.5 -35.5 t-32 -69.5t-14 -115.5zM541 1159q1 30 19 65t54.5 75.5t67.5 71t83 78.5q17 16 26 24q7 7 20 17.5t46.5 28t60.5 17.5h2q27 0 47 -22t20 -50q-1 -27 -18 -58.5t-34 -49.5l-17 -17q-113 -106 -194 -164.5t-142 -58.5h-4q-37 0 -37 43z" />
<glyph unicode="&#xea;" d="M160 512q0 76 4.5 138.5t17.5 111t25 86.5t37 65.5t43 46.5t55 31t60 19t70.5 10t75 3.5t83.5 0.5t83.5 -0.5t75 -3.5t71 -10t60.5 -19t55 -31t43.5 -46.5t37.5 -65.5t24.5 -86.5t17.5 -111t5 -138.5v-92h-760q0 -70 14 -115.5t32 -69.5t62.5 -35.5t76.5 -13.5t102 -2 h381v-184h-381q-56 0 -83.5 0.5t-75 3.5t-70.5 10t-60 19t-55 31t-43 46.5t-37 65.5t-25 86.5t-17.5 111t-4.5 138.5zM240 1116l301 420h184l299 -420h-197l-196 250l-193 -250h-198zM344 604h576q0 35 -2.5 64t-10 51.5t-14.5 39.5t-22 30t-26 21.5t-33.5 14t-36.5 9 t-43.5 5t-47 1.5h-53.5q-70 0 -102 -2t-76.5 -13.5t-62.5 -35.5t-32 -69.5t-14 -115.5z" />
<glyph unicode="&#xeb;" d="M160 512q0 76 4.5 138.5t17.5 111t25 86.5t37 65.5t43 46.5t55 31t60 19t70.5 10t75 3.5t83.5 0.5t83.5 -0.5t75 -3.5t71 -10t60.5 -19t55 -31t43.5 -46.5t37.5 -65.5t24.5 -86.5t17.5 -111t5 -138.5v-92h-760q0 -70 14 -115.5t32 -69.5t62.5 -35.5t76.5 -13.5t102 -2 h381v-184h-381q-56 0 -83.5 0.5t-75 3.5t-70.5 10t-60 19t-55 31t-43 46.5t-37 65.5t-25 86.5t-17.5 111t-4.5 138.5zM250 1286q0 69 29 98t98 29t97 -29t28 -98t-28 -98t-97 -29t-98 29t-29 98zM344 604h576q0 35 -2.5 64t-10 51.5t-14.5 39.5t-22 30t-26 21.5t-33.5 14 t-36.5 9t-43.5 5t-47 1.5h-53.5q-70 0 -102 -2t-76.5 -13.5t-62.5 -35.5t-32 -69.5t-14 -115.5zM762 1286q0 69 29 98t98 29t97 -29t28 -98t-28 -98t-97 -29t-98 29t-29 98z" />
<glyph unicode="&#xec;" d="M160 0v184h381v656h-289v184h473v-840h379v-184h-944zM276 1464q0 28 20.5 50t47.5 22h2q27 0 59 -16t50 -32l18 -15q131 -122 168 -164q79 -89 82 -150q0 -43 -37 -43h-4q-61 0 -142 58.5t-194 164.5q-8 7 -19 19.5t-30.5 45.5t-20.5 60z" />
<glyph unicode="&#xed;" d="M160 0v184h381v656h-289v184h473v-840h379v-184h-944zM451 1159q2 40 38.5 93.5t77 94t110.5 105.5q15 14 23 21q7 7 20 17.5t46.5 28t60.5 17.5h2q27 0 47.5 -22t20.5 -50q-1 -27 -18.5 -58.5t-34.5 -49.5l-17 -17q-114 -106 -194.5 -164.5t-140.5 -58.5h-5 q-36 0 -36 43z" />
<glyph unicode="&#xee;" d="M160 0v184h381v656h-289v184h473v-840h379v-184h-944zM160 1116l301 420h184l299 -420h-196l-197 250l-193 -250h-198z" />
<glyph unicode="&#xef;" d="M160 0v184h381v656h-289v184h473v-840h379v-184h-944zM197 1286q0 69 29 98t98 29t97 -29t28 -98t-28 -98t-97 -29t-98 29t-29 98zM709 1286q0 69 29 98t98 29t97 -29t28 -98t-28 -98t-97 -29t-98 29t-29 98z" />
<glyph unicode="&#xf0;" d="M160 475q0 218 128 347.5t343 129.5q82 0 165.5 -32t123.5 -72q0 229 -187 397l-282 -164v183l145 79q-36 20 -72 35.5t-54 21.5l-19 5l90 131q6 0 33 -11t75.5 -38.5t95.5 -61.5l207 111l64 -131l-148 -86q236 -236 236 -551v-293q0 -131 -57.5 -239t-166.5 -172 t-249 -64q-216 0 -343.5 128.5t-127.5 346.5zM344 475q0 -138 74.5 -214.5t212.5 -76.5t213.5 76.5t75.5 214.5t-75.5 215.5t-213.5 77.5q-137 0 -212 -77t-75 -216z" />
<glyph unicode="&#xf1;" d="M160 0v553q0 237 12 306q17 94 74 127t219 37l166 1q76 0 140.5 -16t109.5 -43.5t82 -62.5t59.5 -74.5t39 -78.5t24.5 -74t12.5 -62.5t5.5 -43.5v-16v-553h-184v553q0 6 -0.5 16.5t-6.5 40t-16 57t-32 60.5t-51 56.5t-76.5 40t-106.5 16.5q-215 0 -251 -36t-36 -251v-553 h-184zM160 1255q0 6 0.5 16t6 39t15 56t31 59t50 55.5t75 39.5t104.5 16q79 0 138 -19t91 -46t56 -54t47 -46t49 -19q27 0 47 9.5t29 21.5t14.5 27.5t6 22t0.5 11.5h184q0 -9 -0.5 -20.5t-6.5 -40.5t-15.5 -54.5t-31 -56.5t-50 -53t-74.5 -37t-103 -15q-79 0 -138 19t-91 46 t-56 54.5t-47.5 46.5t-50.5 19t-46.5 -10t-28.5 -24t-14.5 -28.5t-6.5 -24.5v-10h-184z" />
<glyph unicode="&#xf2;" d="M160 512q0 76 4.5 138.5t17.5 111t25 86.5t37 65.5t43 46.5t55 31t60 19t70.5 10t75 3.5t83.5 0.5t83.5 -0.5t75 -3.5t71 -10t60.5 -19t55 -31t43.5 -46.5t37.5 -65.5t24.5 -86.5t17.5 -111t5 -138.5t-5 -138.5t-17.5 -111t-24.5 -86.5t-37.5 -65.5t-43.5 -46.5t-55 -31 t-60.5 -19t-71 -10t-75 -3.5t-83.5 -0.5t-83.5 0.5t-75 3.5t-70.5 10t-60 19t-55 31t-43 46.5t-37 65.5t-25 86.5t-17.5 111t-4.5 138.5zM276 1464q0 28 20.5 50t47.5 22h2q27 0 59 -16t50 -32l18 -15q131 -122 168 -164q79 -89 82 -150q0 -43 -37 -43h-4q-61 0 -142 58.5 t-194 164.5q-8 7 -19 19.5t-30.5 45.5t-20.5 60zM344 512q0 -81 7 -138t27.5 -93t38.5 -56t59 -29t68.5 -10.5t86.5 -1.5t86.5 1.5t69 10.5t59.5 29t38.5 56t28 93t7.5 138t-7.5 138t-28 93t-38.5 56t-59.5 29t-69 10.5t-86.5 1.5t-86.5 -1.5t-68.5 -10.5t-59 -29t-38.5 -56 t-27.5 -93t-7 -138z" />
<glyph unicode="&#xf3;" d="M160 512q0 76 4.5 138.5t17.5 111t25 86.5t37 65.5t43 46.5t55 31t60 19t70.5 10t75 3.5t83.5 0.5t83.5 -0.5t75 -3.5t71 -10t60.5 -19t55 -31t43.5 -46.5t37.5 -65.5t24.5 -86.5t17.5 -111t5 -138.5t-5 -138.5t-17.5 -111t-24.5 -86.5t-37.5 -65.5t-43.5 -46.5t-55 -31 t-60.5 -19t-71 -10t-75 -3.5t-83.5 -0.5t-83.5 0.5t-75 3.5t-70.5 10t-60 19t-55 31t-43 46.5t-37 65.5t-25 86.5t-17.5 111t-4.5 138.5zM344 512q0 -81 7 -138t27.5 -93t38.5 -56t59 -29t68.5 -10.5t86.5 -1.5t86.5 1.5t69 10.5t59.5 29t38.5 56t28 93t7.5 138t-7.5 138 t-28 93t-38.5 56t-59.5 29t-69 10.5t-86.5 1.5t-86.5 -1.5t-68.5 -10.5t-59 -29t-38.5 -56t-27.5 -93t-7 -138zM541 1159q1 30 19 65t54.5 75.5t67.5 71t83 78.5q17 16 26 24q7 7 20 17.5t46.5 28t60.5 17.5h2q27 0 47 -22t20 -50q-1 -27 -18 -58.5t-34 -49.5l-17 -17 q-113 -106 -194 -164.5t-142 -58.5h-4q-37 0 -37 43z" />
<glyph unicode="&#xf4;" d="M160 512q0 76 4.5 138.5t17.5 111t25 86.5t37 65.5t43 46.5t55 31t60 19t70.5 10t75 3.5t83.5 0.5t83.5 -0.5t75 -3.5t71 -10t60.5 -19t55 -31t43.5 -46.5t37.5 -65.5t24.5 -86.5t17.5 -111t5 -138.5t-5 -138.5t-17.5 -111t-24.5 -86.5t-37.5 -65.5t-43.5 -46.5t-55 -31 t-60.5 -19t-71 -10t-75 -3.5t-83.5 -0.5t-83.5 0.5t-75 3.5t-70.5 10t-60 19t-55 31t-43 46.5t-37 65.5t-25 86.5t-17.5 111t-4.5 138.5zM240 1116l301 420h184l299 -420h-197l-196 250l-193 -250h-198zM344 512q0 -81 7 -138t27.5 -93t38.5 -56t59 -29t68.5 -10.5 t86.5 -1.5t86.5 1.5t69 10.5t59.5 29t38.5 56t28 93t7.5 138t-7.5 138t-28 93t-38.5 56t-59.5 29t-69 10.5t-86.5 1.5t-86.5 -1.5t-68.5 -10.5t-59 -29t-38.5 -56t-27.5 -93t-7 -138z" />
<glyph unicode="&#xf5;" d="M160 512q0 76 4.5 138.5t17.5 111t25 86.5t37 65.5t43 46.5t55 31t60 19t70.5 10t75 3.5t83.5 0.5t83.5 -0.5t75 -3.5t71 -10t60.5 -19t55 -31t43.5 -46.5t37.5 -65.5t24.5 -86.5t17.5 -111t5 -138.5t-5 -138.5t-17.5 -111t-24.5 -86.5t-37.5 -65.5t-43.5 -46.5t-55 -31 t-60.5 -19t-71 -10t-75 -3.5t-83.5 -0.5t-83.5 0.5t-75 3.5t-70.5 10t-60 19t-55 31t-43 46.5t-37 65.5t-25 86.5t-17.5 111t-4.5 138.5zM160 1255q0 6 0.5 16t6 39t15 56t31 59t50 55.5t75 39.5t104.5 16q79 0 138 -19t91 -46t56 -54t47 -46t49 -19q27 0 47 9.5t29 21.5 t14.5 27.5t6 22t0.5 11.5h184q0 -9 -0.5 -20.5t-6.5 -40.5t-15.5 -54.5t-31 -56.5t-50 -53t-74.5 -37t-103 -15q-79 0 -138 19t-91 46t-56 54.5t-47.5 46.5t-50.5 19t-46.5 -10t-28.5 -24t-14.5 -28.5t-6.5 -24.5v-10h-184zM344 512q0 -81 7 -138t27.5 -93t38.5 -56t59 -29 t68.5 -10.5t86.5 -1.5t86.5 1.5t69 10.5t59.5 29t38.5 56t28 93t7.5 138t-7.5 138t-28 93t-38.5 56t-59.5 29t-69 10.5t-86.5 1.5t-86.5 -1.5t-68.5 -10.5t-59 -29t-38.5 -56t-27.5 -93t-7 -138z" />
<glyph unicode="&#xf6;" d="M160 512q0 76 4.5 138.5t17.5 111t25 86.5t37 65.5t43 46.5t55 31t60 19t70.5 10t75 3.5t83.5 0.5t83.5 -0.5t75 -3.5t71 -10t60.5 -19t55 -31t43.5 -46.5t37.5 -65.5t24.5 -86.5t17.5 -111t5 -138.5t-5 -138.5t-17.5 -111t-24.5 -86.5t-37.5 -65.5t-43.5 -46.5t-55 -31 t-60.5 -19t-71 -10t-75 -3.5t-83.5 -0.5t-83.5 0.5t-75 3.5t-70.5 10t-60 19t-55 31t-43 46.5t-37 65.5t-25 86.5t-17.5 111t-4.5 138.5zM250 1286q0 69 29 98t98 29t97 -29t28 -98t-28 -98t-97 -29t-98 29t-29 98zM344 512q0 -81 7 -138t27.5 -93t38.5 -56t59 -29 t68.5 -10.5t86.5 -1.5t86.5 1.5t69 10.5t59.5 29t38.5 56t28 93t7.5 138t-7.5 138t-28 93t-38.5 56t-59.5 29t-69 10.5t-86.5 1.5t-86.5 -1.5t-68.5 -10.5t-59 -29t-38.5 -56t-27.5 -93t-7 -138zM762 1286q0 69 29 98t98 29t97 -29t28 -98t-28 -98t-97 -29t-98 29t-29 98z " />
<glyph unicode="&#xf7;" d="M160 840v184h944v-184h-944zM504 1286q0 69 29 98t98 29t97 -29t28 -98t-28 -98t-97 -29t-98 29t-29 98zM506 575q0 69 28 98t97 29t98 -29t29 -98t-29 -96.5t-98 -27.5t-97 27.5t-28 96.5z" />
<glyph unicode="&#xf8;" d="M160 512q0 76 4.5 138.5t17.5 111t25 86.5t37 65.5t43 46.5t55 31t60 19t70.5 10t75 3.5t83.5 0.5h98l98 256h197l-111 -285q95 -36 143 -146.5t48 -336.5q0 -76 -5 -138.5t-17.5 -111t-24.5 -86.5t-37.5 -65.5t-43.5 -46.5t-55 -31t-60.5 -19t-71 -10t-75 -3.5 t-83.5 -0.5h-99l-96 -256h-196l110 285q-95 36 -142.5 146.5t-47.5 336.5zM344 512q0 -124 19 -192t59 -99l237 619h-28q-59 0 -86.5 -1.5t-68.5 -10.5t-59 -29t-38.5 -56t-27.5 -93t-7 -138zM604 184h27q59 0 86.5 1.5t69 10.5t59.5 29t38.5 56t28 93t7.5 138 q0 124 -19 192t-59 99z" />
<glyph unicode="&#xf9;" d="M160 455v16v553h184v-553q0 -6 0.5 -16.5t6.5 -40t15.5 -57t31 -60.5t50.5 -56.5t76.5 -40t106.5 -16.5q216 0 252.5 36t36.5 251v553h184v-553q0 -237 -13 -307q-16 -93 -75 -126q-57 -33 -221 -37q-47 -1 -164 -1q-76 0 -140 16t-109.5 43.5t-82 62.5t-59 74.5 t-39 78.5t-24 74t-12 62.5t-5.5 43.5zM276 1464q0 28 20.5 50t47.5 22h2q27 0 59 -16t50 -32l18 -15q131 -122 168 -164q79 -89 82 -150q0 -43 -37 -43h-4q-61 0 -142 58.5t-194 164.5q-8 7 -19 19.5t-30.5 45.5t-20.5 60z" />
<glyph unicode="&#xfa;" d="M160 455v16v553h184v-553q0 -6 0.5 -16.5t6.5 -40t15.5 -57t31 -60.5t50.5 -56.5t76.5 -40t106.5 -16.5q216 0 252.5 36t36.5 251v553h184v-553q0 -237 -13 -307q-16 -93 -75 -126q-57 -33 -221 -37q-47 -1 -164 -1q-76 0 -140 16t-109.5 43.5t-82 62.5t-59 74.5 t-39 78.5t-24 74t-12 62.5t-5.5 43.5zM541 1159q1 30 19 65t54.5 75.5t67.5 71t83 78.5q17 16 26 24q7 7 20 17.5t46.5 28t60.5 17.5h2q27 0 47 -22t20 -50q-1 -27 -18 -58.5t-34 -49.5l-17 -17q-113 -106 -194 -164.5t-142 -58.5h-4q-37 0 -37 43z" />
<glyph unicode="&#xfb;" d="M160 455v16v553h184v-553q0 -6 0.5 -16.5t6.5 -40t15.5 -57t31 -60.5t50.5 -56.5t76.5 -40t106.5 -16.5q216 0 252.5 36t36.5 251v553h184v-553q0 -237 -13 -307q-16 -93 -75 -126q-57 -33 -221 -37q-47 -1 -164 -1q-76 0 -140 16t-109.5 43.5t-82 62.5t-59 74.5 t-39 78.5t-24 74t-12 62.5t-5.5 43.5zM240 1116l301 420h184l299 -420h-197l-196 250l-193 -250h-198z" />
<glyph unicode="&#xfc;" d="M160 455v16v553h184v-553q0 -6 0.5 -16.5t6.5 -40t15.5 -57t31 -60.5t50.5 -56.5t76.5 -40t106.5 -16.5q216 0 252.5 36t36.5 251v553h184v-553q0 -237 -13 -307q-16 -93 -75 -126q-57 -33 -221 -37q-47 -1 -164 -1q-76 0 -140 16t-109.5 43.5t-82 62.5t-59 74.5 t-39 78.5t-24 74t-12 62.5t-5.5 43.5zM250 1286q0 69 29 98t98 29t97 -29t28 -98t-28 -98t-97 -29t-98 29t-29 98zM762 1286q0 69 29 98t98 29t97 -29t28 -98t-28 -98t-97 -29t-98 29t-29 98z" />
<glyph unicode="&#xfd;" d="M160 1024h198l273 -758l274 758h199l-375 -1024l-188 -512h-193l184 512zM615 1159q1 30 19 65t54.5 75.5t67.5 71t83 78.5q17 16 26 24q7 7 20 17.5t46.5 28t60.5 17.5h2q27 0 47.5 -22t20.5 -50q-1 -27 -18.5 -58.5t-34.5 -49.5l-17 -17q-113 -106 -194 -164.5 t-142 -58.5h-4q-37 0 -37 43z" />
<glyph unicode="&#xfe;" d="M160 -512v2048h184v-696q0 4 1.5 10t17 22t42.5 28t86.5 22t139.5 10q96 0 174 -23t126 -60t83.5 -82t52 -90t26 -82t10.5 -60l1 -23q0 -9 -1 -24t-10.5 -58.5t-26 -83.5t-52 -88.5t-83.5 -83t-126 -58.5t-174 -24q-80 0 -139.5 9.5t-86.5 23t-42.5 27t-16.5 22.5l-2 10 v-696h-184zM344 369q0 -4 1.5 -10t17 -22t42.5 -28.5t86.5 -22.5t139.5 -10t139.5 24.5t87 59t43 69t17.5 59.5l2 24q0 5 -0.5 13.5t-6.5 33t-16 47t-32 49.5t-51 46.5t-76.5 33t-106.5 13.5q-80 0 -139.5 -9.5t-86.5 -23t-42.5 -27.5t-16.5 -24l-2 -9v-286z" />
<glyph unicode="&#xff;" d="M160 1024h198l273 -758l274 758h199l-375 -1024l-188 -512h-193l184 512zM250 1286q0 69 29 98t98 29t97 -29t28 -98t-28 -98t-97 -29t-98 29t-29 98zM762 1286q0 69 29 98t98 29t97 -29t28 -98t-28 -98t-97 -29t-98 29t-29 98z" />
<glyph unicode="&#x152;" d="M160 768q0 160 11.5 284t27.5 204t45.5 136t52.5 83.5t63.5 42t62.5 16.5t64 2q119 0 144 -25v25h184h289v-184h-289v-99v-393h197v-184h-197v-492h289v-184h-289h-184v25q-49 -25 -144 -25q-42 0 -64 2t-62.5 16.5t-63.5 42t-52.5 83.5t-45.5 136t-27.5 204t-11.5 284z M344 768q0 -120 6 -215.5t15 -156t23 -103.5t25 -63.5t28 -31.5t25 -12.5t21 -1.5q16 0 25 1.5t26.5 12.5t28 31.5t24 63.5t21.5 103.5t13.5 155.5t5.5 216q0 120 -6.5 216t-15.5 155.5t-23.5 103t-26 64t-28 31.5t-24.5 12.5t-20 1.5q-13 0 -21 -1.5t-25 -12.5t-28 -31.5 t-25 -63.5t-23 -103.5t-15 -156t-6 -215.5z" />
<glyph unicode="&#x153;" d="M160 378v134q0 293 11 369q14 92 61 120q38 22 150 23h48q62 0 130.5 -16.5t78.5 -16.5q54 33 188 33h89.5t65 -9t51 -17t32 -39t23 -59t10 -93t6.5 -125v-170v-88h-379v-10q0 -69 1 -97.5t8.5 -67t21.5 -50.5t43.5 -27t70 -17.5t105.5 -2.5h129v-152q-299 0 -449 41 q-25 -28 -71 -34.5t-154 -6.5q-134 0 -173 12q-54 17 -74 77q-21 66 -23 289zM311 512q0 -254 16 -307t103 -53q81 0 96 53t15 307q0 248 -14 292t-97 44q-29 0 -43.5 -2t-30.5 -12.5t-22.5 -30t-13 -59t-8 -93.5t-1.5 -139zM725 600h227v79t-2.5 58.5t-4.5 45t-9.5 29 t-14.5 20.5t-22.5 9.5t-30.5 6t-41 0.5q-70 0 -86 -19.5t-16 -103.5v-86v-39z" />
<glyph unicode="&#x178;" d="M160 1536h205l266 -541l266 541h207l-379 -768v-768h-184v768zM250 1755q0 69 29 98t98 29t97 -29t28 -98t-28 -98t-97 -29t-98 29t-29 98zM762 1755q0 69 29 98t98 29t97 -29t28 -98t-28 -98t-97 -29t-98 29t-29 98z" />
<glyph unicode="&#x2c6;" d="M240 1116l301 420h184l299 -420h-197l-196 250l-193 -250h-198z" />
<glyph unicode="&#x2000;" horiz-adv-x="1024" />
<glyph unicode="&#x2001;" horiz-adv-x="2048" />
<glyph unicode="&#x2002;" horiz-adv-x="1024" />
<glyph unicode="&#x2003;" horiz-adv-x="2048" />
<glyph unicode="&#x2004;" horiz-adv-x="682" />
<glyph unicode="&#x2005;" horiz-adv-x="512" />
<glyph unicode="&#x2006;" horiz-adv-x="341" />
<glyph unicode="&#x2007;" horiz-adv-x="341" />
<glyph unicode="&#x2008;" horiz-adv-x="256" />
<glyph unicode="&#x2009;" horiz-adv-x="409" />
<glyph unicode="&#x200a;" horiz-adv-x="113" />
<glyph unicode="&#x2010;" d="M160 584v184h944v-184h-944z" />
<glyph unicode="&#x2011;" d="M160 584v184h944v-184h-944z" />
<glyph unicode="&#x2012;" d="M160 584v184h944v-184h-944z" />
<glyph unicode="&#x2013;" d="M160 584v184h944v-184h-944z" />
<glyph unicode="&#x2014;" d="M0 584v184h1264v-184h-1264z" />
<glyph unicode="&#x2022;" d="M258 676q0 76 20.5 138t53.5 99.5t72.5 65.5t79.5 41t73 20t53 8l21 1q8 0 21.5 -1t52.5 -8t74.5 -20t78.5 -41t74 -65.5t52.5 -99.5t21.5 -138q0 -77 -20.5 -139t-54 -100t-73.5 -66t-79.5 -41t-73 -20t-53.5 -8l-21 -1q-5 0 -13 0.5t-33.5 4t-50.5 9.5t-58.5 19 t-62.5 31t-58 47t-50 65t-34 87.5t-13 111.5z" />
<glyph unicode="&#x2026;" d="M0 184q0 69 56.5 127t125.5 58t127 -58t58 -127t-58 -126.5t-127 -57.5t-125.5 57.5t-56.5 126.5zM449 184q0 69 56.5 127t125.5 58t126.5 -58t57.5 -127t-57.5 -126.5t-126.5 -57.5t-125.5 57.5t-56.5 126.5zM897 184q0 69 56.5 127t125.5 58t127 -58t58 -127 t-58 -126.5t-127 -57.5t-125.5 57.5t-56.5 126.5z" />
<glyph unicode="&#x202f;" horiz-adv-x="409" />
<glyph unicode="&#x205f;" horiz-adv-x="512" />
<glyph unicode="&#x20ac;" d="M160 768q0 214 32.5 365.5t96 238.5t147 125.5t195.5 38.5q42 0 65.5 -0.5t68 -3.5t71.5 -8.5t67 -16.5t65 -27t53.5 -41t44.5 -57t27 -76.5t11 -97.5h-184q0 34 -13.5 60t-40.5 41t-52.5 24.5t-64 13t-60 4.5t-54.5 1h-4q-111 0 -177.5 -76t-93.5 -252h463v-184h-479 v-144h479v-184h-463q27 -176 93.5 -252t177.5 -76h4q33 0 54.5 1t60 4.5t64 13t52.5 24.5t40.5 41t13.5 60h184q0 -53 -11 -97.5t-27 -76.5t-44.5 -57t-53.5 -41t-65 -27t-67 -16.5t-71.5 -8.5t-68 -3.5t-65.5 -0.5q-112 0 -195.5 38.5t-147 125.5t-96 238.5t-32.5 365.5z " />
<glyph unicode="&#x25fc;" horiz-adv-x="1024" d="M0 0v1024h1024v-1024h-1024z" />
</font>
</defs>
</svg>
